<?xml version="1.0" encoding="UTF-8"?>
<svg xmlns="http://www.w3.org/2000/svg" xmlns:xlink="http://www.w3.org/1999/xlink" width="202pt" height="162pt" viewBox="0 0 202 162" version="1.2">
<defs>
<clipPath id="clip1">
  <rect width="202" height="162"/>
</clipPath>
<g id="surface4" clip-path="url(#clip1)">
<path style="fill:none;stroke-width:0.4;stroke-linecap:round;stroke-linejoin:miter;stroke:rgb(0%,0%,0%);stroke-opacity:1;stroke-miterlimit:4;" d="M 84 5.889771 L 104 5.889771 L 104 25.889771 L 84 25.889771 Z M 84 5.889771 " transform="matrix(1,0,0,1,-83,-4.889771)"/>
<path style="fill:none;stroke-width:0.4;stroke-linecap:round;stroke-linejoin:miter;stroke:rgb(0%,0%,0%);stroke-opacity:1;stroke-miterlimit:4;" d="M 84 25.889771 L 104 25.889771 L 104 45.889771 L 84 45.889771 Z M 84 25.889771 " transform="matrix(1,0,0,1,-83,-4.889771)"/>
<path style="fill:none;stroke-width:0.4;stroke-linecap:round;stroke-linejoin:miter;stroke:rgb(0%,0%,0%);stroke-opacity:1;stroke-miterlimit:4;" d="M 84 45.889771 L 104 45.889771 L 104 65.889771 L 84 65.889771 Z M 84 45.889771 " transform="matrix(1,0,0,1,-83,-4.889771)"/>
<path style="fill:none;stroke-width:0.4;stroke-linecap:round;stroke-linejoin:miter;stroke:rgb(0%,0%,0%);stroke-opacity:1;stroke-miterlimit:4;" d="M 84 65.889771 L 104 65.889771 L 104 85.889771 L 84 85.889771 Z M 84 65.889771 " transform="matrix(1,0,0,1,-83,-4.889771)"/>
<path style="fill:none;stroke-width:0.4;stroke-linecap:round;stroke-linejoin:miter;stroke:rgb(0%,0%,0%);stroke-opacity:1;stroke-miterlimit:4;" d="M 84 85.889771 L 104 85.889771 L 104 105.889771 L 84 105.889771 Z M 84 85.889771 " transform="matrix(1,0,0,1,-83,-4.889771)"/>
<path style="fill:none;stroke-width:0.4;stroke-linecap:round;stroke-linejoin:miter;stroke:rgb(0%,0%,0%);stroke-opacity:1;stroke-miterlimit:4;" d="M 84 105.889771 L 104 105.889771 L 104 125.889771 L 84 125.889771 Z M 84 105.889771 " transform="matrix(1,0,0,1,-83,-4.889771)"/>
<path style="fill:none;stroke-width:0.4;stroke-linecap:round;stroke-linejoin:miter;stroke:rgb(0%,0%,0%);stroke-opacity:1;stroke-miterlimit:4;" d="M 84 125.889771 L 104 125.889771 L 104 145.889771 L 84 145.889771 Z M 84 125.889771 " transform="matrix(1,0,0,1,-83,-4.889771)"/>
<path style="fill:none;stroke-width:0.4;stroke-linecap:round;stroke-linejoin:miter;stroke:rgb(0%,0%,0%);stroke-opacity:1;stroke-miterlimit:4;" d="M 84 145.889771 L 104 145.889771 L 104 165.889771 L 84 165.889771 Z M 84 145.889771 " transform="matrix(1,0,0,1,-83,-4.889771)"/>
<path style="fill:none;stroke-width:0.4;stroke-linecap:butt;stroke-linejoin:miter;stroke:rgb(0%,0%,0%);stroke-opacity:1;stroke-miterlimit:4;" d="M 88 83.889771 L 88 87.889771 " transform="matrix(1,0,0,1,-83,-4.889771)"/>
<path style="fill:none;stroke-width:0.4;stroke-linecap:butt;stroke-linejoin:miter;stroke:rgb(0%,0%,0%);stroke-opacity:1;stroke-miterlimit:4;" d="M 92 83.889771 L 92 87.889771 " transform="matrix(1,0,0,1,-83,-4.889771)"/>
<path style="fill:none;stroke-width:0.4;stroke-linecap:butt;stroke-linejoin:miter;stroke:rgb(0%,0%,0%);stroke-opacity:1;stroke-miterlimit:4;" d="M 96 83.889771 L 96 87.889771 " transform="matrix(1,0,0,1,-83,-4.889771)"/>
<path style="fill:none;stroke-width:0.4;stroke-linecap:butt;stroke-linejoin:miter;stroke:rgb(0%,0%,0%);stroke-opacity:1;stroke-miterlimit:4;" d="M 100 83.889771 L 100 87.889771 " transform="matrix(1,0,0,1,-83,-4.889771)"/>
<path style="fill:none;stroke-width:0.4;stroke-linecap:round;stroke-linejoin:miter;stroke:rgb(0%,0%,0%);stroke-opacity:1;stroke-miterlimit:4;" d="M 104 5.889771 L 124 5.889771 L 124 25.889771 L 104 25.889771 Z M 104 5.889771 " transform="matrix(1,0,0,1,-83,-4.889771)"/>
<path style="fill:none;stroke-width:0.4;stroke-linecap:round;stroke-linejoin:miter;stroke:rgb(0%,0%,0%);stroke-opacity:1;stroke-miterlimit:4;" d="M 104 25.889771 L 124 25.889771 L 124 45.889771 L 104 45.889771 Z M 104 25.889771 " transform="matrix(1,0,0,1,-83,-4.889771)"/>
<path style="fill:none;stroke-width:0.4;stroke-linecap:round;stroke-linejoin:miter;stroke:rgb(0%,0%,0%);stroke-opacity:1;stroke-miterlimit:4;" d="M 104 45.889771 L 124 45.889771 L 124 65.889771 L 104 65.889771 Z M 104 45.889771 " transform="matrix(1,0,0,1,-83,-4.889771)"/>
<path style="fill:none;stroke-width:0.4;stroke-linecap:round;stroke-linejoin:miter;stroke:rgb(0%,0%,0%);stroke-opacity:1;stroke-miterlimit:4;" d="M 104 65.889771 L 124 65.889771 L 124 85.889771 L 104 85.889771 Z M 104 65.889771 " transform="matrix(1,0,0,1,-83,-4.889771)"/>
<path style="fill:none;stroke-width:0.4;stroke-linecap:round;stroke-linejoin:miter;stroke:rgb(0%,0%,0%);stroke-opacity:1;stroke-miterlimit:4;" d="M 104 85.889771 L 124 85.889771 L 124 105.889771 L 104 105.889771 Z M 104 85.889771 " transform="matrix(1,0,0,1,-83,-4.889771)"/>
<path style="fill:none;stroke-width:0.4;stroke-linecap:round;stroke-linejoin:miter;stroke:rgb(0%,0%,0%);stroke-opacity:1;stroke-miterlimit:4;" d="M 104 105.889771 L 124 105.889771 L 124 125.889771 L 104 125.889771 Z M 104 105.889771 " transform="matrix(1,0,0,1,-83,-4.889771)"/>
<path style="fill:none;stroke-width:0.4;stroke-linecap:round;stroke-linejoin:miter;stroke:rgb(0%,0%,0%);stroke-opacity:1;stroke-miterlimit:4;" d="M 104 125.889771 L 124 125.889771 L 124 145.889771 L 104 145.889771 Z M 104 125.889771 " transform="matrix(1,0,0,1,-83,-4.889771)"/>
<path style="fill:none;stroke-width:0.4;stroke-linecap:round;stroke-linejoin:miter;stroke:rgb(0%,0%,0%);stroke-opacity:1;stroke-miterlimit:4;" d="M 104 145.889771 L 124 145.889771 L 124 165.889771 L 104 165.889771 Z M 104 145.889771 " transform="matrix(1,0,0,1,-83,-4.889771)"/>
<path style="fill:none;stroke-width:0.4;stroke-linecap:butt;stroke-linejoin:miter;stroke:rgb(0%,0%,0%);stroke-opacity:1;stroke-miterlimit:4;" d="M 108 83.889771 L 108 87.889771 " transform="matrix(1,0,0,1,-83,-4.889771)"/>
<path style="fill:none;stroke-width:0.4;stroke-linecap:butt;stroke-linejoin:miter;stroke:rgb(0%,0%,0%);stroke-opacity:1;stroke-miterlimit:4;" d="M 112 83.889771 L 112 87.889771 " transform="matrix(1,0,0,1,-83,-4.889771)"/>
<path style="fill:none;stroke-width:0.4;stroke-linecap:butt;stroke-linejoin:miter;stroke:rgb(0%,0%,0%);stroke-opacity:1;stroke-miterlimit:4;" d="M 116 83.889771 L 116 87.889771 " transform="matrix(1,0,0,1,-83,-4.889771)"/>
<path style="fill:none;stroke-width:0.4;stroke-linecap:butt;stroke-linejoin:miter;stroke:rgb(0%,0%,0%);stroke-opacity:1;stroke-miterlimit:4;" d="M 120 83.889771 L 120 87.889771 " transform="matrix(1,0,0,1,-83,-4.889771)"/>
<path style="fill:none;stroke-width:0.4;stroke-linecap:round;stroke-linejoin:miter;stroke:rgb(0%,0%,0%);stroke-opacity:1;stroke-miterlimit:4;" d="M 124 5.889771 L 144 5.889771 L 144 25.889771 L 124 25.889771 Z M 124 5.889771 " transform="matrix(1,0,0,1,-83,-4.889771)"/>
<path style="fill:none;stroke-width:0.4;stroke-linecap:round;stroke-linejoin:miter;stroke:rgb(0%,0%,0%);stroke-opacity:1;stroke-miterlimit:4;" d="M 124 25.889771 L 144 25.889771 L 144 45.889771 L 124 45.889771 Z M 124 25.889771 " transform="matrix(1,0,0,1,-83,-4.889771)"/>
<path style="fill:none;stroke-width:0.4;stroke-linecap:round;stroke-linejoin:miter;stroke:rgb(0%,0%,0%);stroke-opacity:1;stroke-miterlimit:4;" d="M 124 45.889771 L 144 45.889771 L 144 65.889771 L 124 65.889771 Z M 124 45.889771 " transform="matrix(1,0,0,1,-83,-4.889771)"/>
<path style="fill:none;stroke-width:0.4;stroke-linecap:round;stroke-linejoin:miter;stroke:rgb(0%,0%,0%);stroke-opacity:1;stroke-miterlimit:4;" d="M 124 65.889771 L 144 65.889771 L 144 85.889771 L 124 85.889771 Z M 124 65.889771 " transform="matrix(1,0,0,1,-83,-4.889771)"/>
<path style="fill:none;stroke-width:0.4;stroke-linecap:round;stroke-linejoin:miter;stroke:rgb(0%,0%,0%);stroke-opacity:1;stroke-miterlimit:4;" d="M 124 85.889771 L 144 85.889771 L 144 105.889771 L 124 105.889771 Z M 124 85.889771 " transform="matrix(1,0,0,1,-83,-4.889771)"/>
<path style="fill:none;stroke-width:0.4;stroke-linecap:round;stroke-linejoin:miter;stroke:rgb(0%,0%,0%);stroke-opacity:1;stroke-miterlimit:4;" d="M 124 105.889771 L 144 105.889771 L 144 125.889771 L 124 125.889771 Z M 124 105.889771 " transform="matrix(1,0,0,1,-83,-4.889771)"/>
<path style="fill:none;stroke-width:0.4;stroke-linecap:round;stroke-linejoin:miter;stroke:rgb(0%,0%,0%);stroke-opacity:1;stroke-miterlimit:4;" d="M 124 125.889771 L 144 125.889771 L 144 145.889771 L 124 145.889771 Z M 124 125.889771 " transform="matrix(1,0,0,1,-83,-4.889771)"/>
<path style="fill:none;stroke-width:0.4;stroke-linecap:round;stroke-linejoin:miter;stroke:rgb(0%,0%,0%);stroke-opacity:1;stroke-miterlimit:4;" d="M 124 145.889771 L 144 145.889771 L 144 165.889771 L 124 165.889771 Z M 124 145.889771 " transform="matrix(1,0,0,1,-83,-4.889771)"/>
<path style="fill:none;stroke-width:0.4;stroke-linecap:butt;stroke-linejoin:miter;stroke:rgb(0%,0%,0%);stroke-opacity:1;stroke-miterlimit:4;" d="M 128 83.889771 L 128 87.889771 " transform="matrix(1,0,0,1,-83,-4.889771)"/>
<path style="fill:none;stroke-width:0.4;stroke-linecap:butt;stroke-linejoin:miter;stroke:rgb(0%,0%,0%);stroke-opacity:1;stroke-miterlimit:4;" d="M 132 83.889771 L 132 87.889771 " transform="matrix(1,0,0,1,-83,-4.889771)"/>
<path style="fill:none;stroke-width:0.4;stroke-linecap:butt;stroke-linejoin:miter;stroke:rgb(0%,0%,0%);stroke-opacity:1;stroke-miterlimit:4;" d="M 136 83.889771 L 136 87.889771 " transform="matrix(1,0,0,1,-83,-4.889771)"/>
<path style="fill:none;stroke-width:0.4;stroke-linecap:butt;stroke-linejoin:miter;stroke:rgb(0%,0%,0%);stroke-opacity:1;stroke-miterlimit:4;" d="M 140 83.889771 L 140 87.889771 " transform="matrix(1,0,0,1,-83,-4.889771)"/>
<path style="fill:none;stroke-width:0.4;stroke-linecap:round;stroke-linejoin:miter;stroke:rgb(0%,0%,0%);stroke-opacity:1;stroke-miterlimit:4;" d="M 144 5.889771 L 164 5.889771 L 164 25.889771 L 144 25.889771 Z M 144 5.889771 " transform="matrix(1,0,0,1,-83,-4.889771)"/>
<path style="fill:none;stroke-width:0.4;stroke-linecap:round;stroke-linejoin:miter;stroke:rgb(0%,0%,0%);stroke-opacity:1;stroke-miterlimit:4;" d="M 144 25.889771 L 164 25.889771 L 164 45.889771 L 144 45.889771 Z M 144 25.889771 " transform="matrix(1,0,0,1,-83,-4.889771)"/>
<path style="fill:none;stroke-width:0.4;stroke-linecap:round;stroke-linejoin:miter;stroke:rgb(0%,0%,0%);stroke-opacity:1;stroke-miterlimit:4;" d="M 144 45.889771 L 164 45.889771 L 164 65.889771 L 144 65.889771 Z M 144 45.889771 " transform="matrix(1,0,0,1,-83,-4.889771)"/>
<path style="fill:none;stroke-width:0.4;stroke-linecap:round;stroke-linejoin:miter;stroke:rgb(0%,0%,0%);stroke-opacity:1;stroke-miterlimit:4;" d="M 144 65.889771 L 164 65.889771 L 164 85.889771 L 144 85.889771 Z M 144 65.889771 " transform="matrix(1,0,0,1,-83,-4.889771)"/>
<path style="fill:none;stroke-width:0.4;stroke-linecap:round;stroke-linejoin:miter;stroke:rgb(0%,0%,0%);stroke-opacity:1;stroke-miterlimit:4;" d="M 144 85.889771 L 164 85.889771 L 164 105.889771 L 144 105.889771 Z M 144 85.889771 " transform="matrix(1,0,0,1,-83,-4.889771)"/>
<path style="fill:none;stroke-width:0.4;stroke-linecap:round;stroke-linejoin:miter;stroke:rgb(0%,0%,0%);stroke-opacity:1;stroke-miterlimit:4;" d="M 144 105.889771 L 164 105.889771 L 164 125.889771 L 144 125.889771 Z M 144 105.889771 " transform="matrix(1,0,0,1,-83,-4.889771)"/>
<path style="fill:none;stroke-width:0.4;stroke-linecap:round;stroke-linejoin:miter;stroke:rgb(0%,0%,0%);stroke-opacity:1;stroke-miterlimit:4;" d="M 144 125.889771 L 164 125.889771 L 164 145.889771 L 144 145.889771 Z M 144 125.889771 " transform="matrix(1,0,0,1,-83,-4.889771)"/>
<path style="fill:none;stroke-width:0.4;stroke-linecap:round;stroke-linejoin:miter;stroke:rgb(0%,0%,0%);stroke-opacity:1;stroke-miterlimit:4;" d="M 144 145.889771 L 164 145.889771 L 164 165.889771 L 144 165.889771 Z M 144 145.889771 " transform="matrix(1,0,0,1,-83,-4.889771)"/>
<path style="fill:none;stroke-width:0.4;stroke-linecap:butt;stroke-linejoin:miter;stroke:rgb(0%,0%,0%);stroke-opacity:1;stroke-miterlimit:4;" d="M 148 83.889771 L 148 87.889771 " transform="matrix(1,0,0,1,-83,-4.889771)"/>
<path style="fill:none;stroke-width:0.4;stroke-linecap:butt;stroke-linejoin:miter;stroke:rgb(0%,0%,0%);stroke-opacity:1;stroke-miterlimit:4;" d="M 152 83.889771 L 152 87.889771 " transform="matrix(1,0,0,1,-83,-4.889771)"/>
<path style="fill:none;stroke-width:0.4;stroke-linecap:butt;stroke-linejoin:miter;stroke:rgb(0%,0%,0%);stroke-opacity:1;stroke-miterlimit:4;" d="M 156 83.889771 L 156 87.889771 " transform="matrix(1,0,0,1,-83,-4.889771)"/>
<path style="fill:none;stroke-width:0.4;stroke-linecap:butt;stroke-linejoin:miter;stroke:rgb(0%,0%,0%);stroke-opacity:1;stroke-miterlimit:4;" d="M 160 83.889771 L 160 87.889771 " transform="matrix(1,0,0,1,-83,-4.889771)"/>
<path style="fill:none;stroke-width:0.4;stroke-linecap:round;stroke-linejoin:miter;stroke:rgb(0%,0%,0%);stroke-opacity:1;stroke-miterlimit:4;" d="M 164 5.889771 L 184 5.889771 L 184 25.889771 L 164 25.889771 Z M 164 5.889771 " transform="matrix(1,0,0,1,-83,-4.889771)"/>
<path style="fill:none;stroke-width:0.4;stroke-linecap:round;stroke-linejoin:miter;stroke:rgb(0%,0%,0%);stroke-opacity:1;stroke-miterlimit:4;" d="M 164 25.889771 L 184 25.889771 L 184 45.889771 L 164 45.889771 Z M 164 25.889771 " transform="matrix(1,0,0,1,-83,-4.889771)"/>
<path style="fill:none;stroke-width:0.4;stroke-linecap:round;stroke-linejoin:miter;stroke:rgb(0%,0%,0%);stroke-opacity:1;stroke-miterlimit:4;" d="M 164 45.889771 L 184 45.889771 L 184 65.889771 L 164 65.889771 Z M 164 45.889771 " transform="matrix(1,0,0,1,-83,-4.889771)"/>
<path style="fill:none;stroke-width:0.4;stroke-linecap:round;stroke-linejoin:miter;stroke:rgb(0%,0%,0%);stroke-opacity:1;stroke-miterlimit:4;" d="M 164 65.889771 L 184 65.889771 L 184 85.889771 L 164 85.889771 Z M 164 65.889771 " transform="matrix(1,0,0,1,-83,-4.889771)"/>
<path style="fill:none;stroke-width:0.4;stroke-linecap:round;stroke-linejoin:miter;stroke:rgb(0%,0%,0%);stroke-opacity:1;stroke-miterlimit:4;" d="M 164 85.889771 L 184 85.889771 L 184 105.889771 L 164 105.889771 Z M 164 85.889771 " transform="matrix(1,0,0,1,-83,-4.889771)"/>
<path style="fill:none;stroke-width:0.4;stroke-linecap:round;stroke-linejoin:miter;stroke:rgb(0%,0%,0%);stroke-opacity:1;stroke-miterlimit:4;" d="M 164 105.889771 L 184 105.889771 L 184 125.889771 L 164 125.889771 Z M 164 105.889771 " transform="matrix(1,0,0,1,-83,-4.889771)"/>
<path style="fill:none;stroke-width:0.4;stroke-linecap:round;stroke-linejoin:miter;stroke:rgb(0%,0%,0%);stroke-opacity:1;stroke-miterlimit:4;" d="M 164 125.889771 L 184 125.889771 L 184 145.889771 L 164 145.889771 Z M 164 125.889771 " transform="matrix(1,0,0,1,-83,-4.889771)"/>
<path style="fill:none;stroke-width:0.4;stroke-linecap:round;stroke-linejoin:miter;stroke:rgb(0%,0%,0%);stroke-opacity:1;stroke-miterlimit:4;" d="M 164 145.889771 L 184 145.889771 L 184 165.889771 L 164 165.889771 Z M 164 145.889771 " transform="matrix(1,0,0,1,-83,-4.889771)"/>
<path style="fill:none;stroke-width:0.4;stroke-linecap:butt;stroke-linejoin:miter;stroke:rgb(0%,0%,0%);stroke-opacity:1;stroke-miterlimit:4;" d="M 168 83.889771 L 168 87.889771 " transform="matrix(1,0,0,1,-83,-4.889771)"/>
<path style="fill:none;stroke-width:0.4;stroke-linecap:butt;stroke-linejoin:miter;stroke:rgb(0%,0%,0%);stroke-opacity:1;stroke-miterlimit:4;" d="M 172 83.889771 L 172 87.889771 " transform="matrix(1,0,0,1,-83,-4.889771)"/>
<path style="fill:none;stroke-width:0.4;stroke-linecap:butt;stroke-linejoin:miter;stroke:rgb(0%,0%,0%);stroke-opacity:1;stroke-miterlimit:4;" d="M 176 83.889771 L 176 87.889771 " transform="matrix(1,0,0,1,-83,-4.889771)"/>
<path style="fill:none;stroke-width:0.4;stroke-linecap:butt;stroke-linejoin:miter;stroke:rgb(0%,0%,0%);stroke-opacity:1;stroke-miterlimit:4;" d="M 180 83.889771 L 180 87.889771 " transform="matrix(1,0,0,1,-83,-4.889771)"/>
<path style="fill:none;stroke-width:0.4;stroke-linecap:round;stroke-linejoin:miter;stroke:rgb(0%,0%,0%);stroke-opacity:1;stroke-miterlimit:4;" d="M 184 5.889771 L 204 5.889771 L 204 25.889771 L 184 25.889771 Z M 184 5.889771 " transform="matrix(1,0,0,1,-83,-4.889771)"/>
<path style="fill:none;stroke-width:0.4;stroke-linecap:round;stroke-linejoin:miter;stroke:rgb(0%,0%,0%);stroke-opacity:1;stroke-miterlimit:4;" d="M 184 25.889771 L 204 25.889771 L 204 45.889771 L 184 45.889771 Z M 184 25.889771 " transform="matrix(1,0,0,1,-83,-4.889771)"/>
<path style="fill:none;stroke-width:0.4;stroke-linecap:round;stroke-linejoin:miter;stroke:rgb(0%,0%,0%);stroke-opacity:1;stroke-miterlimit:4;" d="M 184 45.889771 L 204 45.889771 L 204 65.889771 L 184 65.889771 Z M 184 45.889771 " transform="matrix(1,0,0,1,-83,-4.889771)"/>
<path style="fill:none;stroke-width:0.4;stroke-linecap:round;stroke-linejoin:miter;stroke:rgb(0%,0%,0%);stroke-opacity:1;stroke-miterlimit:4;" d="M 184 65.889771 L 204 65.889771 L 204 85.889771 L 184 85.889771 Z M 184 65.889771 " transform="matrix(1,0,0,1,-83,-4.889771)"/>
<path style="fill:none;stroke-width:0.4;stroke-linecap:round;stroke-linejoin:miter;stroke:rgb(0%,0%,0%);stroke-opacity:1;stroke-miterlimit:4;" d="M 184 85.889771 L 204 85.889771 L 204 105.889771 L 184 105.889771 Z M 184 85.889771 " transform="matrix(1,0,0,1,-83,-4.889771)"/>
<path style="fill:none;stroke-width:0.4;stroke-linecap:round;stroke-linejoin:miter;stroke:rgb(0%,0%,0%);stroke-opacity:1;stroke-miterlimit:4;" d="M 184 105.889771 L 204 105.889771 L 204 125.889771 L 184 125.889771 Z M 184 105.889771 " transform="matrix(1,0,0,1,-83,-4.889771)"/>
<path style="fill:none;stroke-width:0.4;stroke-linecap:round;stroke-linejoin:miter;stroke:rgb(0%,0%,0%);stroke-opacity:1;stroke-miterlimit:4;" d="M 184 125.889771 L 204 125.889771 L 204 145.889771 L 184 145.889771 Z M 184 125.889771 " transform="matrix(1,0,0,1,-83,-4.889771)"/>
<path style="fill:none;stroke-width:0.4;stroke-linecap:round;stroke-linejoin:miter;stroke:rgb(0%,0%,0%);stroke-opacity:1;stroke-miterlimit:4;" d="M 184 145.889771 L 204 145.889771 L 204 165.889771 L 184 165.889771 Z M 184 145.889771 " transform="matrix(1,0,0,1,-83,-4.889771)"/>
<path style="fill:none;stroke-width:0.4;stroke-linecap:butt;stroke-linejoin:miter;stroke:rgb(0%,0%,0%);stroke-opacity:1;stroke-miterlimit:4;" d="M 188 83.889771 L 188 87.889771 " transform="matrix(1,0,0,1,-83,-4.889771)"/>
<path style="fill:none;stroke-width:0.4;stroke-linecap:butt;stroke-linejoin:miter;stroke:rgb(0%,0%,0%);stroke-opacity:1;stroke-miterlimit:4;" d="M 192 83.889771 L 192 87.889771 " transform="matrix(1,0,0,1,-83,-4.889771)"/>
<path style="fill:none;stroke-width:0.4;stroke-linecap:butt;stroke-linejoin:miter;stroke:rgb(0%,0%,0%);stroke-opacity:1;stroke-miterlimit:4;" d="M 196 83.889771 L 196 87.889771 " transform="matrix(1,0,0,1,-83,-4.889771)"/>
<path style="fill:none;stroke-width:0.4;stroke-linecap:butt;stroke-linejoin:miter;stroke:rgb(0%,0%,0%);stroke-opacity:1;stroke-miterlimit:4;" d="M 200 83.889771 L 200 87.889771 " transform="matrix(1,0,0,1,-83,-4.889771)"/>
<path style="fill:none;stroke-width:0.4;stroke-linecap:round;stroke-linejoin:miter;stroke:rgb(0%,0%,0%);stroke-opacity:1;stroke-miterlimit:4;" d="M 204 5.889771 L 224 5.889771 L 224 25.889771 L 204 25.889771 Z M 204 5.889771 " transform="matrix(1,0,0,1,-83,-4.889771)"/>
<path style="fill:none;stroke-width:0.4;stroke-linecap:round;stroke-linejoin:miter;stroke:rgb(0%,0%,0%);stroke-opacity:1;stroke-miterlimit:4;" d="M 204 25.889771 L 224 25.889771 L 224 45.889771 L 204 45.889771 Z M 204 25.889771 " transform="matrix(1,0,0,1,-83,-4.889771)"/>
<path style="fill:none;stroke-width:0.4;stroke-linecap:round;stroke-linejoin:miter;stroke:rgb(0%,0%,0%);stroke-opacity:1;stroke-miterlimit:4;" d="M 204 45.889771 L 224 45.889771 L 224 65.889771 L 204 65.889771 Z M 204 45.889771 " transform="matrix(1,0,0,1,-83,-4.889771)"/>
<path style="fill:none;stroke-width:0.4;stroke-linecap:round;stroke-linejoin:miter;stroke:rgb(0%,0%,0%);stroke-opacity:1;stroke-miterlimit:4;" d="M 204 65.889771 L 224 65.889771 L 224 85.889771 L 204 85.889771 Z M 204 65.889771 " transform="matrix(1,0,0,1,-83,-4.889771)"/>
<path style="fill:none;stroke-width:0.4;stroke-linecap:round;stroke-linejoin:miter;stroke:rgb(0%,0%,0%);stroke-opacity:1;stroke-miterlimit:4;" d="M 204 85.889771 L 224 85.889771 L 224 105.889771 L 204 105.889771 Z M 204 85.889771 " transform="matrix(1,0,0,1,-83,-4.889771)"/>
<path style="fill:none;stroke-width:0.4;stroke-linecap:round;stroke-linejoin:miter;stroke:rgb(0%,0%,0%);stroke-opacity:1;stroke-miterlimit:4;" d="M 204 105.889771 L 224 105.889771 L 224 125.889771 L 204 125.889771 Z M 204 105.889771 " transform="matrix(1,0,0,1,-83,-4.889771)"/>
<path style="fill:none;stroke-width:0.4;stroke-linecap:round;stroke-linejoin:miter;stroke:rgb(0%,0%,0%);stroke-opacity:1;stroke-miterlimit:4;" d="M 204 125.889771 L 224 125.889771 L 224 145.889771 L 204 145.889771 Z M 204 125.889771 " transform="matrix(1,0,0,1,-83,-4.889771)"/>
<path style="fill:none;stroke-width:0.4;stroke-linecap:round;stroke-linejoin:miter;stroke:rgb(0%,0%,0%);stroke-opacity:1;stroke-miterlimit:4;" d="M 204 145.889771 L 224 145.889771 L 224 165.889771 L 204 165.889771 Z M 204 145.889771 " transform="matrix(1,0,0,1,-83,-4.889771)"/>
<path style="fill:none;stroke-width:0.4;stroke-linecap:butt;stroke-linejoin:miter;stroke:rgb(0%,0%,0%);stroke-opacity:1;stroke-miterlimit:4;" d="M 208 83.889771 L 208 87.889771 " transform="matrix(1,0,0,1,-83,-4.889771)"/>
<path style="fill:none;stroke-width:0.4;stroke-linecap:butt;stroke-linejoin:miter;stroke:rgb(0%,0%,0%);stroke-opacity:1;stroke-miterlimit:4;" d="M 212 83.889771 L 212 87.889771 " transform="matrix(1,0,0,1,-83,-4.889771)"/>
<path style="fill:none;stroke-width:0.4;stroke-linecap:butt;stroke-linejoin:miter;stroke:rgb(0%,0%,0%);stroke-opacity:1;stroke-miterlimit:4;" d="M 216 83.889771 L 216 87.889771 " transform="matrix(1,0,0,1,-83,-4.889771)"/>
<path style="fill:none;stroke-width:0.4;stroke-linecap:butt;stroke-linejoin:miter;stroke:rgb(0%,0%,0%);stroke-opacity:1;stroke-miterlimit:4;" d="M 220 83.889771 L 220 87.889771 " transform="matrix(1,0,0,1,-83,-4.889771)"/>
<path style="fill:none;stroke-width:0.4;stroke-linecap:round;stroke-linejoin:miter;stroke:rgb(0%,0%,0%);stroke-opacity:1;stroke-miterlimit:4;" d="M 224 5.889771 L 244 5.889771 L 244 25.889771 L 224 25.889771 Z M 224 5.889771 " transform="matrix(1,0,0,1,-83,-4.889771)"/>
<path style="fill:none;stroke-width:0.4;stroke-linecap:round;stroke-linejoin:miter;stroke:rgb(0%,0%,0%);stroke-opacity:1;stroke-miterlimit:4;" d="M 224 25.889771 L 244 25.889771 L 244 45.889771 L 224 45.889771 Z M 224 25.889771 " transform="matrix(1,0,0,1,-83,-4.889771)"/>
<path style="fill:none;stroke-width:0.4;stroke-linecap:round;stroke-linejoin:miter;stroke:rgb(0%,0%,0%);stroke-opacity:1;stroke-miterlimit:4;" d="M 224 45.889771 L 244 45.889771 L 244 65.889771 L 224 65.889771 Z M 224 45.889771 " transform="matrix(1,0,0,1,-83,-4.889771)"/>
<path style="fill:none;stroke-width:0.4;stroke-linecap:round;stroke-linejoin:miter;stroke:rgb(0%,0%,0%);stroke-opacity:1;stroke-miterlimit:4;" d="M 224 65.889771 L 244 65.889771 L 244 85.889771 L 224 85.889771 Z M 224 65.889771 " transform="matrix(1,0,0,1,-83,-4.889771)"/>
<path style="fill:none;stroke-width:0.4;stroke-linecap:round;stroke-linejoin:miter;stroke:rgb(0%,0%,0%);stroke-opacity:1;stroke-miterlimit:4;" d="M 224 85.889771 L 244 85.889771 L 244 105.889771 L 224 105.889771 Z M 224 85.889771 " transform="matrix(1,0,0,1,-83,-4.889771)"/>
<path style="fill:none;stroke-width:0.4;stroke-linecap:round;stroke-linejoin:miter;stroke:rgb(0%,0%,0%);stroke-opacity:1;stroke-miterlimit:4;" d="M 224 105.889771 L 244 105.889771 L 244 125.889771 L 224 125.889771 Z M 224 105.889771 " transform="matrix(1,0,0,1,-83,-4.889771)"/>
<path style="fill:none;stroke-width:0.4;stroke-linecap:round;stroke-linejoin:miter;stroke:rgb(0%,0%,0%);stroke-opacity:1;stroke-miterlimit:4;" d="M 224 125.889771 L 244 125.889771 L 244 145.889771 L 224 145.889771 Z M 224 125.889771 " transform="matrix(1,0,0,1,-83,-4.889771)"/>
<path style="fill:none;stroke-width:0.4;stroke-linecap:round;stroke-linejoin:miter;stroke:rgb(0%,0%,0%);stroke-opacity:1;stroke-miterlimit:4;" d="M 224 145.889771 L 244 145.889771 L 244 165.889771 L 224 165.889771 Z M 224 145.889771 " transform="matrix(1,0,0,1,-83,-4.889771)"/>
<path style="fill:none;stroke-width:0.4;stroke-linecap:butt;stroke-linejoin:miter;stroke:rgb(0%,0%,0%);stroke-opacity:1;stroke-miterlimit:4;" d="M 228 83.889771 L 228 87.889771 " transform="matrix(1,0,0,1,-83,-4.889771)"/>
<path style="fill:none;stroke-width:0.4;stroke-linecap:butt;stroke-linejoin:miter;stroke:rgb(0%,0%,0%);stroke-opacity:1;stroke-miterlimit:4;" d="M 232 83.889771 L 232 87.889771 " transform="matrix(1,0,0,1,-83,-4.889771)"/>
<path style="fill:none;stroke-width:0.4;stroke-linecap:butt;stroke-linejoin:miter;stroke:rgb(0%,0%,0%);stroke-opacity:1;stroke-miterlimit:4;" d="M 236 83.889771 L 236 87.889771 " transform="matrix(1,0,0,1,-83,-4.889771)"/>
<path style="fill:none;stroke-width:0.4;stroke-linecap:butt;stroke-linejoin:miter;stroke:rgb(0%,0%,0%);stroke-opacity:1;stroke-miterlimit:4;" d="M 240 83.889771 L 240 87.889771 " transform="matrix(1,0,0,1,-83,-4.889771)"/>
<path style="fill:none;stroke-width:0.4;stroke-linecap:round;stroke-linejoin:miter;stroke:rgb(0%,0%,0%);stroke-opacity:1;stroke-miterlimit:4;" d="M 244 5.889771 L 264 5.889771 L 264 25.889771 L 244 25.889771 Z M 244 5.889771 " transform="matrix(1,0,0,1,-83,-4.889771)"/>
<path style="fill:none;stroke-width:0.4;stroke-linecap:round;stroke-linejoin:miter;stroke:rgb(0%,0%,0%);stroke-opacity:1;stroke-miterlimit:4;" d="M 244 25.889771 L 264 25.889771 L 264 45.889771 L 244 45.889771 Z M 244 25.889771 " transform="matrix(1,0,0,1,-83,-4.889771)"/>
<path style="fill:none;stroke-width:0.4;stroke-linecap:round;stroke-linejoin:miter;stroke:rgb(0%,0%,0%);stroke-opacity:1;stroke-miterlimit:4;" d="M 244 45.889771 L 264 45.889771 L 264 65.889771 L 244 65.889771 Z M 244 45.889771 " transform="matrix(1,0,0,1,-83,-4.889771)"/>
<path style="fill:none;stroke-width:0.4;stroke-linecap:round;stroke-linejoin:miter;stroke:rgb(0%,0%,0%);stroke-opacity:1;stroke-miterlimit:4;" d="M 244 65.889771 L 264 65.889771 L 264 85.889771 L 244 85.889771 Z M 244 65.889771 " transform="matrix(1,0,0,1,-83,-4.889771)"/>
<path style="fill:none;stroke-width:0.4;stroke-linecap:round;stroke-linejoin:miter;stroke:rgb(0%,0%,0%);stroke-opacity:1;stroke-miterlimit:4;" d="M 244 85.889771 L 264 85.889771 L 264 105.889771 L 244 105.889771 Z M 244 85.889771 " transform="matrix(1,0,0,1,-83,-4.889771)"/>
<path style="fill:none;stroke-width:0.4;stroke-linecap:round;stroke-linejoin:miter;stroke:rgb(0%,0%,0%);stroke-opacity:1;stroke-miterlimit:4;" d="M 244 105.889771 L 264 105.889771 L 264 125.889771 L 244 125.889771 Z M 244 105.889771 " transform="matrix(1,0,0,1,-83,-4.889771)"/>
<path style="fill:none;stroke-width:0.4;stroke-linecap:round;stroke-linejoin:miter;stroke:rgb(0%,0%,0%);stroke-opacity:1;stroke-miterlimit:4;" d="M 244 125.889771 L 264 125.889771 L 264 145.889771 L 244 145.889771 Z M 244 125.889771 " transform="matrix(1,0,0,1,-83,-4.889771)"/>
<path style="fill:none;stroke-width:0.4;stroke-linecap:round;stroke-linejoin:miter;stroke:rgb(0%,0%,0%);stroke-opacity:1;stroke-miterlimit:4;" d="M 244 145.889771 L 264 145.889771 L 264 165.889771 L 244 165.889771 Z M 244 145.889771 " transform="matrix(1,0,0,1,-83,-4.889771)"/>
<path style="fill:none;stroke-width:0.4;stroke-linecap:butt;stroke-linejoin:miter;stroke:rgb(0%,0%,0%);stroke-opacity:1;stroke-miterlimit:4;" d="M 248 83.889771 L 248 87.889771 " transform="matrix(1,0,0,1,-83,-4.889771)"/>
<path style="fill:none;stroke-width:0.4;stroke-linecap:butt;stroke-linejoin:miter;stroke:rgb(0%,0%,0%);stroke-opacity:1;stroke-miterlimit:4;" d="M 252 83.889771 L 252 87.889771 " transform="matrix(1,0,0,1,-83,-4.889771)"/>
<path style="fill:none;stroke-width:0.4;stroke-linecap:butt;stroke-linejoin:miter;stroke:rgb(0%,0%,0%);stroke-opacity:1;stroke-miterlimit:4;" d="M 256 83.889771 L 256 87.889771 " transform="matrix(1,0,0,1,-83,-4.889771)"/>
<path style="fill:none;stroke-width:0.4;stroke-linecap:butt;stroke-linejoin:miter;stroke:rgb(0%,0%,0%);stroke-opacity:1;stroke-miterlimit:4;" d="M 260 83.889771 L 260 87.889771 " transform="matrix(1,0,0,1,-83,-4.889771)"/>
<path style="fill:none;stroke-width:0.4;stroke-linecap:round;stroke-linejoin:miter;stroke:rgb(0%,0%,0%);stroke-opacity:1;stroke-miterlimit:4;" d="M 264 5.889771 L 284 5.889771 L 284 25.889771 L 264 25.889771 Z M 264 5.889771 " transform="matrix(1,0,0,1,-83,-4.889771)"/>
<path style="fill:none;stroke-width:0.4;stroke-linecap:round;stroke-linejoin:miter;stroke:rgb(0%,0%,0%);stroke-opacity:1;stroke-miterlimit:4;" d="M 264 25.889771 L 284 25.889771 L 284 45.889771 L 264 45.889771 Z M 264 25.889771 " transform="matrix(1,0,0,1,-83,-4.889771)"/>
<path style="fill:none;stroke-width:0.4;stroke-linecap:round;stroke-linejoin:miter;stroke:rgb(0%,0%,0%);stroke-opacity:1;stroke-miterlimit:4;" d="M 264 45.889771 L 284 45.889771 L 284 65.889771 L 264 65.889771 Z M 264 45.889771 " transform="matrix(1,0,0,1,-83,-4.889771)"/>
<path style="fill:none;stroke-width:0.4;stroke-linecap:round;stroke-linejoin:miter;stroke:rgb(0%,0%,0%);stroke-opacity:1;stroke-miterlimit:4;" d="M 264 65.889771 L 284 65.889771 L 284 85.889771 L 264 85.889771 Z M 264 65.889771 " transform="matrix(1,0,0,1,-83,-4.889771)"/>
<path style="fill:none;stroke-width:0.4;stroke-linecap:round;stroke-linejoin:miter;stroke:rgb(0%,0%,0%);stroke-opacity:1;stroke-miterlimit:4;" d="M 264 85.889771 L 284 85.889771 L 284 105.889771 L 264 105.889771 Z M 264 85.889771 " transform="matrix(1,0,0,1,-83,-4.889771)"/>
<path style="fill:none;stroke-width:0.4;stroke-linecap:round;stroke-linejoin:miter;stroke:rgb(0%,0%,0%);stroke-opacity:1;stroke-miterlimit:4;" d="M 264 105.889771 L 284 105.889771 L 284 125.889771 L 264 125.889771 Z M 264 105.889771 " transform="matrix(1,0,0,1,-83,-4.889771)"/>
<path style="fill:none;stroke-width:0.4;stroke-linecap:round;stroke-linejoin:miter;stroke:rgb(0%,0%,0%);stroke-opacity:1;stroke-miterlimit:4;" d="M 264 125.889771 L 284 125.889771 L 284 145.889771 L 264 145.889771 Z M 264 125.889771 " transform="matrix(1,0,0,1,-83,-4.889771)"/>
<path style="fill:none;stroke-width:0.4;stroke-linecap:round;stroke-linejoin:miter;stroke:rgb(0%,0%,0%);stroke-opacity:1;stroke-miterlimit:4;" d="M 264 145.889771 L 284 145.889771 L 284 165.889771 L 264 165.889771 Z M 264 145.889771 " transform="matrix(1,0,0,1,-83,-4.889771)"/>
<path style="fill:none;stroke-width:0.4;stroke-linecap:butt;stroke-linejoin:miter;stroke:rgb(0%,0%,0%);stroke-opacity:1;stroke-miterlimit:4;" d="M 268 83.889771 L 268 87.889771 " transform="matrix(1,0,0,1,-83,-4.889771)"/>
<path style="fill:none;stroke-width:0.4;stroke-linecap:butt;stroke-linejoin:miter;stroke:rgb(0%,0%,0%);stroke-opacity:1;stroke-miterlimit:4;" d="M 272 83.889771 L 272 87.889771 " transform="matrix(1,0,0,1,-83,-4.889771)"/>
<path style="fill:none;stroke-width:0.4;stroke-linecap:butt;stroke-linejoin:miter;stroke:rgb(0%,0%,0%);stroke-opacity:1;stroke-miterlimit:4;" d="M 276 83.889771 L 276 87.889771 " transform="matrix(1,0,0,1,-83,-4.889771)"/>
<path style="fill:none;stroke-width:0.4;stroke-linecap:butt;stroke-linejoin:miter;stroke:rgb(0%,0%,0%);stroke-opacity:1;stroke-miterlimit:4;" d="M 280 83.889771 L 280 87.889771 " transform="matrix(1,0,0,1,-83,-4.889771)"/>
<path style="fill:none;stroke-width:0.4;stroke-linecap:butt;stroke-linejoin:miter;stroke:rgb(0%,0%,0%);stroke-opacity:1;stroke-miterlimit:4;" d="M 186 9.889771 L 182 9.889771 " transform="matrix(1,0,0,1,-83,-4.889771)"/>
<path style="fill:none;stroke-width:0.4;stroke-linecap:butt;stroke-linejoin:miter;stroke:rgb(0%,0%,0%);stroke-opacity:1;stroke-miterlimit:4;" d="M 186 13.889771 L 182 13.889771 " transform="matrix(1,0,0,1,-83,-4.889771)"/>
<path style="fill:none;stroke-width:0.4;stroke-linecap:butt;stroke-linejoin:miter;stroke:rgb(0%,0%,0%);stroke-opacity:1;stroke-miterlimit:4;" d="M 186 17.889771 L 182 17.889771 " transform="matrix(1,0,0,1,-83,-4.889771)"/>
<path style="fill:none;stroke-width:0.4;stroke-linecap:butt;stroke-linejoin:miter;stroke:rgb(0%,0%,0%);stroke-opacity:1;stroke-miterlimit:4;" d="M 186 21.889771 L 182 21.889771 " transform="matrix(1,0,0,1,-83,-4.889771)"/>
<path style="fill:none;stroke-width:0.4;stroke-linecap:butt;stroke-linejoin:miter;stroke:rgb(0%,0%,0%);stroke-opacity:1;stroke-miterlimit:4;" d="M 184 5.889771 L 184 25.889771 " transform="matrix(1,0,0,1,-83,-4.889771)"/>
<path style="fill:none;stroke-width:0.4;stroke-linecap:butt;stroke-linejoin:miter;stroke:rgb(0%,0%,0%);stroke-opacity:1;stroke-miterlimit:4;" d="M 186 29.889771 L 182 29.889771 " transform="matrix(1,0,0,1,-83,-4.889771)"/>
<path style="fill:none;stroke-width:0.4;stroke-linecap:butt;stroke-linejoin:miter;stroke:rgb(0%,0%,0%);stroke-opacity:1;stroke-miterlimit:4;" d="M 186 33.889771 L 182 33.889771 " transform="matrix(1,0,0,1,-83,-4.889771)"/>
<path style="fill:none;stroke-width:0.4;stroke-linecap:butt;stroke-linejoin:miter;stroke:rgb(0%,0%,0%);stroke-opacity:1;stroke-miterlimit:4;" d="M 186 37.889771 L 182 37.889771 " transform="matrix(1,0,0,1,-83,-4.889771)"/>
<path style="fill:none;stroke-width:0.4;stroke-linecap:butt;stroke-linejoin:miter;stroke:rgb(0%,0%,0%);stroke-opacity:1;stroke-miterlimit:4;" d="M 186 41.889771 L 182 41.889771 " transform="matrix(1,0,0,1,-83,-4.889771)"/>
<path style="fill:none;stroke-width:0.4;stroke-linecap:butt;stroke-linejoin:miter;stroke:rgb(0%,0%,0%);stroke-opacity:1;stroke-miterlimit:4;" d="M 184 25.889771 L 184 45.889771 " transform="matrix(1,0,0,1,-83,-4.889771)"/>
<path style="fill:none;stroke-width:0.4;stroke-linecap:butt;stroke-linejoin:miter;stroke:rgb(0%,0%,0%);stroke-opacity:1;stroke-miterlimit:4;" d="M 186 49.889771 L 182 49.889771 " transform="matrix(1,0,0,1,-83,-4.889771)"/>
<path style="fill:none;stroke-width:0.4;stroke-linecap:butt;stroke-linejoin:miter;stroke:rgb(0%,0%,0%);stroke-opacity:1;stroke-miterlimit:4;" d="M 186 53.889771 L 182 53.889771 " transform="matrix(1,0,0,1,-83,-4.889771)"/>
<path style="fill:none;stroke-width:0.4;stroke-linecap:butt;stroke-linejoin:miter;stroke:rgb(0%,0%,0%);stroke-opacity:1;stroke-miterlimit:4;" d="M 186 57.889771 L 182 57.889771 " transform="matrix(1,0,0,1,-83,-4.889771)"/>
<path style="fill:none;stroke-width:0.4;stroke-linecap:butt;stroke-linejoin:miter;stroke:rgb(0%,0%,0%);stroke-opacity:1;stroke-miterlimit:4;" d="M 186 61.889771 L 182 61.889771 " transform="matrix(1,0,0,1,-83,-4.889771)"/>
<path style="fill:none;stroke-width:0.4;stroke-linecap:butt;stroke-linejoin:miter;stroke:rgb(0%,0%,0%);stroke-opacity:1;stroke-miterlimit:4;" d="M 184 45.889771 L 184 65.889771 " transform="matrix(1,0,0,1,-83,-4.889771)"/>
<path style="fill:none;stroke-width:0.4;stroke-linecap:butt;stroke-linejoin:miter;stroke:rgb(0%,0%,0%);stroke-opacity:1;stroke-miterlimit:4;" d="M 186 69.889771 L 182 69.889771 " transform="matrix(1,0,0,1,-83,-4.889771)"/>
<path style="fill:none;stroke-width:0.4;stroke-linecap:butt;stroke-linejoin:miter;stroke:rgb(0%,0%,0%);stroke-opacity:1;stroke-miterlimit:4;" d="M 186 73.889771 L 182 73.889771 " transform="matrix(1,0,0,1,-83,-4.889771)"/>
<path style="fill:none;stroke-width:0.4;stroke-linecap:butt;stroke-linejoin:miter;stroke:rgb(0%,0%,0%);stroke-opacity:1;stroke-miterlimit:4;" d="M 186 77.889771 L 182 77.889771 " transform="matrix(1,0,0,1,-83,-4.889771)"/>
<path style="fill:none;stroke-width:0.4;stroke-linecap:butt;stroke-linejoin:miter;stroke:rgb(0%,0%,0%);stroke-opacity:1;stroke-miterlimit:4;" d="M 186 81.889771 L 182 81.889771 " transform="matrix(1,0,0,1,-83,-4.889771)"/>
<path style="fill:none;stroke-width:0.4;stroke-linecap:butt;stroke-linejoin:miter;stroke:rgb(0%,0%,0%);stroke-opacity:1;stroke-miterlimit:4;" d="M 184 65.889771 L 184 85.889771 " transform="matrix(1,0,0,1,-83,-4.889771)"/>
<path style="fill:none;stroke-width:0.4;stroke-linecap:butt;stroke-linejoin:miter;stroke:rgb(0%,0%,0%);stroke-opacity:1;stroke-miterlimit:4;" d="M 186 89.889771 L 182 89.889771 " transform="matrix(1,0,0,1,-83,-4.889771)"/>
<path style="fill:none;stroke-width:0.4;stroke-linecap:butt;stroke-linejoin:miter;stroke:rgb(0%,0%,0%);stroke-opacity:1;stroke-miterlimit:4;" d="M 186 93.889771 L 182 93.889771 " transform="matrix(1,0,0,1,-83,-4.889771)"/>
<path style="fill:none;stroke-width:0.4;stroke-linecap:butt;stroke-linejoin:miter;stroke:rgb(0%,0%,0%);stroke-opacity:1;stroke-miterlimit:4;" d="M 186 97.889771 L 182 97.889771 " transform="matrix(1,0,0,1,-83,-4.889771)"/>
<path style="fill:none;stroke-width:0.4;stroke-linecap:butt;stroke-linejoin:miter;stroke:rgb(0%,0%,0%);stroke-opacity:1;stroke-miterlimit:4;" d="M 186 101.889771 L 182 101.889771 " transform="matrix(1,0,0,1,-83,-4.889771)"/>
<path style="fill:none;stroke-width:0.4;stroke-linecap:butt;stroke-linejoin:miter;stroke:rgb(0%,0%,0%);stroke-opacity:1;stroke-miterlimit:4;" d="M 184 85.889771 L 184 105.889771 " transform="matrix(1,0,0,1,-83,-4.889771)"/>
<path style="fill:none;stroke-width:0.4;stroke-linecap:butt;stroke-linejoin:miter;stroke:rgb(0%,0%,0%);stroke-opacity:1;stroke-miterlimit:4;" d="M 186 109.889771 L 182 109.889771 " transform="matrix(1,0,0,1,-83,-4.889771)"/>
<path style="fill:none;stroke-width:0.4;stroke-linecap:butt;stroke-linejoin:miter;stroke:rgb(0%,0%,0%);stroke-opacity:1;stroke-miterlimit:4;" d="M 186 113.889771 L 182 113.889771 " transform="matrix(1,0,0,1,-83,-4.889771)"/>
<path style="fill:none;stroke-width:0.4;stroke-linecap:butt;stroke-linejoin:miter;stroke:rgb(0%,0%,0%);stroke-opacity:1;stroke-miterlimit:4;" d="M 186 117.889771 L 182 117.889771 " transform="matrix(1,0,0,1,-83,-4.889771)"/>
<path style="fill:none;stroke-width:0.4;stroke-linecap:butt;stroke-linejoin:miter;stroke:rgb(0%,0%,0%);stroke-opacity:1;stroke-miterlimit:4;" d="M 186 121.889771 L 182 121.889771 " transform="matrix(1,0,0,1,-83,-4.889771)"/>
<path style="fill:none;stroke-width:0.4;stroke-linecap:butt;stroke-linejoin:miter;stroke:rgb(0%,0%,0%);stroke-opacity:1;stroke-miterlimit:4;" d="M 184 105.889771 L 184 125.889771 " transform="matrix(1,0,0,1,-83,-4.889771)"/>
<path style="fill:none;stroke-width:0.4;stroke-linecap:butt;stroke-linejoin:miter;stroke:rgb(0%,0%,0%);stroke-opacity:1;stroke-miterlimit:4;" d="M 186 129.889771 L 182 129.889771 " transform="matrix(1,0,0,1,-83,-4.889771)"/>
<path style="fill:none;stroke-width:0.4;stroke-linecap:butt;stroke-linejoin:miter;stroke:rgb(0%,0%,0%);stroke-opacity:1;stroke-miterlimit:4;" d="M 186 133.889771 L 182 133.889771 " transform="matrix(1,0,0,1,-83,-4.889771)"/>
<path style="fill:none;stroke-width:0.4;stroke-linecap:butt;stroke-linejoin:miter;stroke:rgb(0%,0%,0%);stroke-opacity:1;stroke-miterlimit:4;" d="M 186 137.889771 L 182 137.889771 " transform="matrix(1,0,0,1,-83,-4.889771)"/>
<path style="fill:none;stroke-width:0.4;stroke-linecap:butt;stroke-linejoin:miter;stroke:rgb(0%,0%,0%);stroke-opacity:1;stroke-miterlimit:4;" d="M 186 141.889771 L 182 141.889771 " transform="matrix(1,0,0,1,-83,-4.889771)"/>
<path style="fill:none;stroke-width:0.4;stroke-linecap:butt;stroke-linejoin:miter;stroke:rgb(0%,0%,0%);stroke-opacity:1;stroke-miterlimit:4;" d="M 184 125.889771 L 184 145.889771 " transform="matrix(1,0,0,1,-83,-4.889771)"/>
<path style="fill:none;stroke-width:0.4;stroke-linecap:butt;stroke-linejoin:miter;stroke:rgb(0%,0%,0%);stroke-opacity:1;stroke-miterlimit:4;" d="M 186 149.889771 L 182 149.889771 " transform="matrix(1,0,0,1,-83,-4.889771)"/>
<path style="fill:none;stroke-width:0.4;stroke-linecap:butt;stroke-linejoin:miter;stroke:rgb(0%,0%,0%);stroke-opacity:1;stroke-miterlimit:4;" d="M 186 153.889771 L 182 153.889771 " transform="matrix(1,0,0,1,-83,-4.889771)"/>
<path style="fill:none;stroke-width:0.4;stroke-linecap:butt;stroke-linejoin:miter;stroke:rgb(0%,0%,0%);stroke-opacity:1;stroke-miterlimit:4;" d="M 186 157.889771 L 182 157.889771 " transform="matrix(1,0,0,1,-83,-4.889771)"/>
<path style="fill:none;stroke-width:0.4;stroke-linecap:butt;stroke-linejoin:miter;stroke:rgb(0%,0%,0%);stroke-opacity:1;stroke-miterlimit:4;" d="M 186 161.889771 L 182 161.889771 " transform="matrix(1,0,0,1,-83,-4.889771)"/>
<path style="fill:none;stroke-width:0.4;stroke-linecap:butt;stroke-linejoin:miter;stroke:rgb(0%,0%,0%);stroke-opacity:1;stroke-miterlimit:4;" d="M 184 145.889771 L 184 165.889771 " transform="matrix(1,0,0,1,-83,-4.889771)"/>
</g>
</defs>
<g id="surface1">
<use xlink:href="#surface4"/>
</g>
</svg>
