<?xml version="1.0" encoding="UTF-8"?>
<svg xmlns="http://www.w3.org/2000/svg" xmlns:xlink="http://www.w3.org/1999/xlink" width="262pt" height="82pt" viewBox="0 0 262 82" version="1.2">
<defs>
<clipPath id="clip1">
  <rect width="262" height="82"/>
</clipPath>
<g id="surface4" clip-path="url(#clip1)">
<path style=" stroke:none;fill-rule:nonzero;fill:rgb(49.803162%,49.803162%,49.803162%);fill-opacity:1;" d="M 49 1 C 49 3.878906 47.070312 6.53125 43.945312 7.953125 C 40.820312 9.375 36.984375 9.347656 33.894531 7.878906 C 30.800781 6.410156 28.933594 3.730469 29 0.855469 "/>
<path style="fill-rule:nonzero;fill:rgb(90.194702%,90.194702%,90.194702%);fill-opacity:1;stroke-width:0.2;stroke-linecap:round;stroke-linejoin:miter;stroke:rgb(0%,0%,0%);stroke-opacity:1;stroke-miterlimit:4;" d="M 398 177.889771 L 406 177.889771 L 406 189.889771 L 398 189.889771 Z M 398 177.889771 " transform="matrix(1,0,0,1,-329,-172.889771)"/>
<path style="fill-rule:nonzero;fill:rgb(90.194702%,90.194702%,90.194702%);fill-opacity:1;stroke-width:0.2;stroke-linecap:round;stroke-linejoin:miter;stroke:rgb(0%,0%,0%);stroke-opacity:1;stroke-miterlimit:4;" d="M 398 197.889771 L 406 197.889771 L 406 209.889771 L 398 209.889771 Z M 398 197.889771 " transform="matrix(1,0,0,1,-329,-172.889771)"/>
<path style="fill-rule:nonzero;fill:rgb(90.194702%,90.194702%,90.194702%);fill-opacity:1;stroke-width:0.2;stroke-linecap:round;stroke-linejoin:miter;stroke:rgb(0%,0%,0%);stroke-opacity:1;stroke-miterlimit:4;" d="M 398.101562 217.889771 L 406.101562 217.889771 L 406.101562 229.889771 L 398.101562 229.889771 Z M 398.101562 217.889771 " transform="matrix(1,0,0,1,-329,-172.889771)"/>
<path style="fill-rule:nonzero;fill:rgb(90.194702%,90.194702%,90.194702%);fill-opacity:1;stroke-width:0.2;stroke-linecap:round;stroke-linejoin:miter;stroke:rgb(0%,0%,0%);stroke-opacity:1;stroke-miterlimit:4;" d="M 398.101562 237.889771 L 406.101562 237.889771 L 406.101562 249.889771 L 398.101562 249.889771 Z M 398.101562 237.889771 " transform="matrix(1,0,0,1,-329,-172.889771)"/>
<path style="fill-rule:nonzero;fill:rgb(90.194702%,90.194702%,90.194702%);fill-opacity:1;stroke-width:0.2;stroke-linecap:round;stroke-linejoin:miter;stroke:rgb(0%,0%,0%);stroke-opacity:1;stroke-miterlimit:4;" d="M 330 237.889771 L 338 237.889771 L 338 249.889771 L 330 249.889771 Z M 330 237.889771 " transform="matrix(1,0,0,1,-329,-172.889771)"/>
<path style="fill-rule:nonzero;fill:rgb(90.194702%,90.194702%,90.194702%);fill-opacity:1;stroke-width:0.2;stroke-linecap:round;stroke-linejoin:miter;stroke:rgb(0%,0%,0%);stroke-opacity:1;stroke-miterlimit:4;" d="M 330.101562 217.889771 L 338.101562 217.889771 L 338.101562 229.889771 L 330.101562 229.889771 Z M 330.101562 217.889771 " transform="matrix(1,0,0,1,-329,-172.889771)"/>
<path style="fill-rule:nonzero;fill:rgb(90.194702%,90.194702%,90.194702%);fill-opacity:1;stroke-width:0.2;stroke-linecap:round;stroke-linejoin:miter;stroke:rgb(0%,0%,0%);stroke-opacity:1;stroke-miterlimit:4;" d="M 329.902344 197.889771 L 337.902344 197.889771 L 337.902344 209.889771 L 329.902344 209.889771 Z M 329.902344 197.889771 " transform="matrix(1,0,0,1,-329,-172.889771)"/>
<path style="fill-rule:nonzero;fill:rgb(90.194702%,90.194702%,90.194702%);fill-opacity:1;stroke-width:0.2;stroke-linecap:round;stroke-linejoin:miter;stroke:rgb(0%,0%,0%);stroke-opacity:1;stroke-miterlimit:4;" d="M 330 177.889771 L 338 177.889771 L 338 189.889771 L 330 189.889771 Z M 330 177.889771 " transform="matrix(1,0,0,1,-329,-172.889771)"/>
<path style="fill:none;stroke-width:0.8;stroke-linecap:round;stroke-linejoin:round;stroke:rgb(0%,0%,0%);stroke-opacity:1;stroke-miterlimit:4;" d="M 350 193.889771 L 350 233.889771 L 382 213.889771 Z M 350 193.889771 " transform="matrix(1,0,0,1,-329,-172.889771)"/>
<path style="fill:none;stroke-width:0.8;stroke-linecap:round;stroke-linejoin:round;stroke:rgb(0%,0%,0%);stroke-opacity:1;stroke-miterlimit:4;" d="M 386 213.889771 L 382 213.889771 " transform="matrix(1,0,0,1,-329,-172.889771)"/>
<path style="fill:none;stroke-width:0.8;stroke-linecap:round;stroke-linejoin:round;stroke:rgb(0%,0%,0%);stroke-opacity:1;stroke-miterlimit:4;" d="M 356.164062 224.069459 L 351.835938 224.069459 " transform="matrix(1,0,0,1,-329,-172.889771)"/>
<path style="fill:none;stroke-width:0.8;stroke-linecap:round;stroke-linejoin:round;stroke:rgb(0%,0%,0%);stroke-opacity:1;stroke-miterlimit:4;" d="M 354 226.24524 L 354 221.889771 " transform="matrix(1,0,0,1,-329,-172.889771)"/>
<path style="fill:none;stroke-width:0.8;stroke-linecap:round;stroke-linejoin:round;stroke:rgb(0%,0%,0%);stroke-opacity:1;stroke-miterlimit:4;" d="M 351.835938 204.292115 L 356.164062 204.292115 " transform="matrix(1,0,0,1,-329,-172.889771)"/>
<path style="fill:none;stroke-width:0.8;stroke-linecap:butt;stroke-linejoin:miter;stroke:rgb(0%,0%,0%);stroke-opacity:1;stroke-miterlimit:4;" d="M 384 213.889771 L 390 213.889771 L 390 223.889771 L 398 223.889771 " transform="matrix(1,0,0,1,-329,-172.889771)"/>
<path style="fill:none;stroke-width:0.8;stroke-linecap:butt;stroke-linejoin:miter;stroke:rgb(0%,0%,0%);stroke-opacity:1;stroke-miterlimit:4;" d="M 350 204.292115 L 338 204.292115 " transform="matrix(1,0,0,1,-329,-172.889771)"/>
<path style="fill:none;stroke-width:0.8;stroke-linecap:butt;stroke-linejoin:miter;stroke:rgb(0%,0%,0%);stroke-opacity:1;stroke-miterlimit:4;" d="M 338 223.889771 L 350 223.889771 " transform="matrix(1,0,0,1,-329,-172.889771)"/>
<path style="fill:none;stroke-width:0.8;stroke-linecap:round;stroke-linejoin:miter;stroke:rgb(0%,0%,0%);stroke-opacity:1;stroke-miterlimit:4;" d="M 338 173.889771 L 398 173.889771 L 398 253.889771 L 338 253.889771 Z M 338 173.889771 " transform="matrix(1,0,0,1,-329,-172.889771)"/>
<path style="fill:none;stroke-width:0.8;stroke-linecap:butt;stroke-linejoin:miter;stroke:rgb(0%,0%,0%);stroke-opacity:1;stroke-dasharray:3.2,0.8;stroke-miterlimit:4;" d="M 338 243.889771 L 368 243.889771 L 368 221.889771 " transform="matrix(1,0,0,1,-329,-172.889771)"/>
<path style="fill:none;stroke-width:0.8;stroke-linecap:butt;stroke-linejoin:miter;stroke:rgb(0%,0%,0%);stroke-opacity:1;stroke-dasharray:3.2,0.8;stroke-miterlimit:4;" d="M 368 205.104615 L 368 203.889771 L 398 203.889771 " transform="matrix(1,0,0,1,-329,-172.889771)"/>
<path style=" stroke:none;fill-rule:nonzero;fill:rgb(0%,0%,0%);fill-opacity:1;" d="M 3.53125 12.21875 L 4.53125 12.21875 L 4.53125 9.390625 L 3.5 9.609375 L 3.5 8.84375 L 4.515625 8.625 L 5.59375 8.625 L 5.59375 12.21875 L 6.59375 12.21875 L 6.59375 13 L 3.53125 13 Z M 3.53125 12.21875 "/>
<path style=" stroke:none;fill-rule:nonzero;fill:rgb(0%,0%,0%);fill-opacity:1;" d="M 4.5625 32.171875 L 6.484375 32.171875 L 6.484375 33 L 3.296875 33 L 3.296875 32.171875 L 4.90625 30.765625 C 5.039062 30.632812 5.140625 30.507812 5.203125 30.390625 C 5.273438 30.265625 5.3125 30.136719 5.3125 30 C 5.3125 29.792969 5.242188 29.625 5.109375 29.5 C 4.972656 29.375 4.789062 29.3125 4.5625 29.3125 C 4.382812 29.3125 4.191406 29.355469 3.984375 29.4375 C 3.773438 29.511719 3.550781 29.621094 3.3125 29.765625 L 3.3125 28.796875 C 3.570312 28.714844 3.820312 28.652344 4.0625 28.609375 C 4.3125 28.570312 4.554688 28.546875 4.796875 28.546875 C 5.316406 28.546875 5.722656 28.664062 6.015625 28.890625 C 6.304688 29.121094 6.453125 29.445312 6.453125 29.859375 C 6.453125 30.101562 6.390625 30.324219 6.265625 30.53125 C 6.140625 30.730469 5.878906 31 5.484375 31.34375 Z M 4.5625 32.171875 "/>
<path style=" stroke:none;fill-rule:nonzero;fill:rgb(0%,0%,0%);fill-opacity:1;" d="M 5.625 50.640625 C 5.914062 50.714844 6.140625 50.851562 6.296875 51.046875 C 6.453125 51.234375 6.53125 51.46875 6.53125 51.75 C 6.53125 52.1875 6.363281 52.523438 6.03125 52.75 C 5.695312 52.96875 5.210938 53.078125 4.578125 53.078125 C 4.347656 53.078125 4.117188 53.054688 3.890625 53.015625 C 3.671875 52.984375 3.453125 52.9375 3.234375 52.875 L 3.234375 52 C 3.441406 52.105469 3.648438 52.183594 3.859375 52.234375 C 4.066406 52.289062 4.269531 52.3125 4.46875 52.3125 C 4.769531 52.3125 5 52.261719 5.15625 52.15625 C 5.3125 52.054688 5.390625 51.90625 5.390625 51.71875 C 5.390625 51.523438 5.304688 51.371094 5.140625 51.265625 C 4.984375 51.164062 4.75 51.109375 4.4375 51.109375 L 3.984375 51.109375 L 3.984375 50.390625 L 4.453125 50.390625 C 4.734375 50.390625 4.941406 50.34375 5.078125 50.25 C 5.222656 50.15625 5.296875 50.023438 5.296875 49.84375 C 5.296875 49.679688 5.226562 49.546875 5.09375 49.453125 C 4.957031 49.359375 4.765625 49.3125 4.515625 49.3125 C 4.335938 49.3125 4.15625 49.335938 3.96875 49.375 C 3.78125 49.417969 3.597656 49.480469 3.421875 49.5625 L 3.421875 48.734375 C 3.640625 48.671875 3.859375 48.625 4.078125 48.59375 C 4.296875 48.5625 4.507812 48.546875 4.71875 48.546875 C 5.289062 48.546875 5.71875 48.640625 6 48.828125 C 6.28125 49.015625 6.421875 49.296875 6.421875 49.671875 C 6.421875 49.921875 6.351562 50.132812 6.21875 50.296875 C 6.082031 50.464844 5.882812 50.578125 5.625 50.640625 Z M 5.625 50.640625 "/>
<path style=" stroke:none;fill-rule:nonzero;fill:rgb(0%,0%,0%);fill-opacity:1;" d="M 5.03125 69.546875 L 3.796875 71.390625 L 5.03125 71.390625 Z M 4.84375 68.625 L 6.109375 68.625 L 6.109375 71.390625 L 6.734375 71.390625 L 6.734375 72.203125 L 6.109375 72.203125 L 6.109375 73 L 5.03125 73 L 5.03125 72.203125 L 3.09375 72.203125 L 3.09375 71.234375 Z M 4.84375 68.625 "/>
<path style=" stroke:none;fill-rule:nonzero;fill:rgb(0%,0%,0%);fill-opacity:1;" d="M 71.640625 68.625 L 74.4375 68.625 L 74.4375 69.453125 L 72.53125 69.453125 L 72.53125 70.125 C 72.625 70.105469 72.710938 70.089844 72.796875 70.078125 C 72.878906 70.070312 72.96875 70.0625 73.0625 70.0625 C 73.59375 70.0625 74.003906 70.199219 74.296875 70.46875 C 74.597656 70.730469 74.75 71.101562 74.75 71.578125 C 74.75 72.046875 74.585938 72.417969 74.265625 72.6875 C 73.941406 72.949219 73.492188 73.078125 72.921875 73.078125 C 72.671875 73.078125 72.425781 73.050781 72.1875 73 C 71.945312 72.960938 71.707031 72.890625 71.46875 72.796875 L 71.46875 71.90625 C 71.707031 72.042969 71.929688 72.148438 72.140625 72.21875 C 72.359375 72.28125 72.5625 72.3125 72.75 72.3125 C 73.019531 72.3125 73.234375 72.25 73.390625 72.125 C 73.546875 71.992188 73.625 71.808594 73.625 71.578125 C 73.625 71.351562 73.546875 71.167969 73.390625 71.03125 C 73.234375 70.898438 73.019531 70.828125 72.75 70.828125 C 72.582031 70.828125 72.40625 70.851562 72.21875 70.890625 C 72.039062 70.933594 71.847656 71 71.640625 71.09375 Z M 71.640625 68.625 "/>
<path style=" stroke:none;fill-rule:nonzero;fill:rgb(0%,0%,0%);fill-opacity:1;" d="M 73.171875 50.84375 C 72.972656 50.84375 72.820312 50.90625 72.71875 51.03125 C 72.625 51.15625 72.578125 51.351562 72.578125 51.609375 C 72.578125 51.859375 72.625 52.054688 72.71875 52.1875 C 72.820312 52.3125 72.972656 52.375 73.171875 52.375 C 73.367188 52.375 73.515625 52.3125 73.609375 52.1875 C 73.710938 52.054688 73.765625 51.859375 73.765625 51.609375 C 73.765625 51.351562 73.710938 51.15625 73.609375 51.03125 C 73.515625 50.90625 73.367188 50.84375 73.171875 50.84375 Z M 74.5625 48.734375 L 74.5625 49.546875 C 74.375 49.464844 74.195312 49.402344 74.03125 49.359375 C 73.875 49.320312 73.71875 49.296875 73.5625 49.296875 C 73.226562 49.296875 72.96875 49.390625 72.78125 49.578125 C 72.59375 49.757812 72.484375 50.03125 72.453125 50.40625 C 72.578125 50.304688 72.710938 50.230469 72.859375 50.1875 C 73.015625 50.136719 73.179688 50.109375 73.359375 50.109375 C 73.804688 50.109375 74.164062 50.246094 74.4375 50.515625 C 74.71875 50.777344 74.859375 51.117188 74.859375 51.53125 C 74.859375 52 74.703125 52.375 74.390625 52.65625 C 74.085938 52.9375 73.675781 53.078125 73.15625 53.078125 C 72.59375 53.078125 72.15625 52.890625 71.84375 52.515625 C 71.53125 52.132812 71.375 51.585938 71.375 50.875 C 71.375 50.15625 71.554688 49.589844 71.921875 49.171875 C 72.285156 48.757812 72.785156 48.546875 73.421875 48.546875 C 73.617188 48.546875 73.8125 48.5625 74 48.59375 C 74.1875 48.625 74.375 48.671875 74.5625 48.734375 Z M 74.5625 48.734375 "/>
<path style=" stroke:none;fill-rule:nonzero;fill:rgb(0%,0%,0%);fill-opacity:1;" d="M 71.40625 28.625 L 74.703125 28.625 L 74.703125 29.265625 L 73 33 L 71.890625 33 L 73.515625 29.453125 L 71.40625 29.453125 Z M 71.40625 28.625 "/>
<path style=" stroke:none;fill-rule:nonzero;fill:rgb(0%,0%,0%);fill-opacity:1;" d="M 73.09375 11.046875 C 72.875 11.046875 72.707031 11.105469 72.59375 11.21875 C 72.488281 11.335938 72.4375 11.496094 72.4375 11.703125 C 72.4375 11.921875 72.488281 12.089844 72.59375 12.203125 C 72.707031 12.320312 72.875 12.375 73.09375 12.375 C 73.300781 12.375 73.457031 12.320312 73.5625 12.203125 C 73.675781 12.089844 73.734375 11.921875 73.734375 11.703125 C 73.734375 11.496094 73.675781 11.335938 73.5625 11.21875 C 73.457031 11.105469 73.300781 11.046875 73.09375 11.046875 Z M 72.265625 10.671875 C 72.003906 10.589844 71.804688 10.464844 71.671875 10.296875 C 71.535156 10.132812 71.46875 9.929688 71.46875 9.6875 C 71.46875 9.3125 71.601562 9.03125 71.875 8.84375 C 72.15625 8.648438 72.5625 8.546875 73.09375 8.546875 C 73.625 8.546875 74.023438 8.648438 74.296875 8.84375 C 74.566406 9.03125 74.703125 9.3125 74.703125 9.6875 C 74.703125 9.929688 74.632812 10.132812 74.5 10.296875 C 74.363281 10.464844 74.164062 10.589844 73.90625 10.671875 C 74.195312 10.757812 74.414062 10.890625 74.5625 11.078125 C 74.71875 11.257812 74.796875 11.484375 74.796875 11.765625 C 74.796875 12.203125 74.648438 12.53125 74.359375 12.75 C 74.078125 12.96875 73.65625 13.078125 73.09375 13.078125 C 72.519531 13.078125 72.085938 12.96875 71.796875 12.75 C 71.503906 12.53125 71.359375 12.203125 71.359375 11.765625 C 71.359375 11.484375 71.4375 11.257812 71.59375 11.078125 C 71.75 10.890625 71.972656 10.757812 72.265625 10.671875 Z M 72.53125 9.796875 C 72.53125 9.976562 72.578125 10.109375 72.671875 10.203125 C 72.765625 10.296875 72.90625 10.34375 73.09375 10.34375 C 73.269531 10.34375 73.40625 10.296875 73.5 10.203125 C 73.59375 10.109375 73.640625 9.976562 73.640625 9.796875 C 73.640625 9.621094 73.59375 9.484375 73.5 9.390625 C 73.40625 9.296875 73.269531 9.25 73.09375 9.25 C 72.90625 9.25 72.765625 9.296875 72.671875 9.390625 C 72.578125 9.484375 72.53125 9.621094 72.53125 9.796875 Z M 72.53125 9.796875 "/>
<path style=" stroke:none;fill-rule:nonzero;fill:rgb(0%,0%,0%);fill-opacity:1;" d="M 56.40625 27.15625 L 56.40625 29 L 55.515625 29 L 55.515625 24 C 56.109375 23.96875 56.453125 23.953125 56.546875 23.953125 C 57.335938 23.953125 57.914062 24.078125 58.28125 24.328125 C 58.644531 24.570312 58.828125 24.945312 58.828125 25.453125 C 58.828125 26.609375 58.15625 27.1875 56.8125 27.1875 C 56.707031 27.1875 56.570312 27.179688 56.40625 27.15625 Z M 56.40625 24.765625 L 56.40625 26.375 C 56.550781 26.386719 56.664062 26.390625 56.75 26.390625 C 57.15625 26.390625 57.453125 26.324219 57.640625 26.1875 C 57.828125 26.054688 57.921875 25.835938 57.921875 25.53125 C 57.921875 25.011719 57.503906 24.75 56.671875 24.75 C 56.578125 24.75 56.488281 24.757812 56.40625 24.765625 Z M 56.40625 24.765625 "/>
<path style=" stroke:none;fill-rule:nonzero;fill:rgb(0%,0%,0%);fill-opacity:1;" d="M 59.382812 28.71875 L 59.710938 27.921875 C 60.054688 28.171875 60.398438 28.296875 60.742188 28.296875 C 61.261719 28.296875 61.523438 28.117188 61.523438 27.75 C 61.523438 27.585938 61.460938 27.421875 61.335938 27.265625 C 61.210938 27.109375 60.953125 26.9375 60.570312 26.75 C 60.195312 26.554688 59.9375 26.390625 59.804688 26.265625 C 59.667969 26.140625 59.5625 25.996094 59.492188 25.828125 C 59.417969 25.652344 59.382812 25.460938 59.382812 25.25 C 59.382812 24.867188 59.523438 24.546875 59.804688 24.296875 C 60.09375 24.039062 60.460938 23.90625 60.898438 23.90625 C 61.480469 23.90625 61.90625 24.015625 62.179688 24.234375 L 61.914062 25 C 61.601562 24.773438 61.265625 24.65625 60.914062 24.65625 C 60.714844 24.65625 60.558594 24.714844 60.445312 24.828125 C 60.328125 24.933594 60.273438 25.074219 60.273438 25.25 C 60.273438 25.53125 60.589844 25.828125 61.226562 26.140625 C 61.558594 26.308594 61.796875 26.460938 61.945312 26.59375 C 62.101562 26.730469 62.214844 26.890625 62.289062 27.078125 C 62.371094 27.265625 62.414062 27.46875 62.414062 27.6875 C 62.414062 28.09375 62.25 28.429688 61.929688 28.6875 C 61.605469 28.949219 61.171875 29.078125 60.632812 29.078125 C 60.171875 29.078125 59.757812 28.960938 59.382812 28.71875 Z M 59.382812 28.71875 "/>
<path style=" stroke:none;fill-rule:nonzero;fill:rgb(0%,0%,0%);fill-opacity:1;" d="M 65.117188 27.171875 L 65.117188 28.390625 L 64.429688 28.390625 L 64.429688 27.171875 L 63.242188 27.171875 L 63.242188 26.484375 L 64.429688 26.484375 L 64.429688 25.3125 L 65.117188 25.3125 L 65.117188 26.484375 L 66.304688 26.484375 L 66.304688 27.171875 Z M 65.117188 27.171875 "/>
<path style=" stroke:none;fill-rule:nonzero;fill:rgb(0%,0%,0%);fill-opacity:1;" d="M 28.40625 67.15625 L 28.40625 69 L 27.515625 69 L 27.515625 64 C 28.109375 63.96875 28.453125 63.953125 28.546875 63.953125 C 29.335938 63.953125 29.914062 64.078125 30.28125 64.328125 C 30.644531 64.570312 30.828125 64.945312 30.828125 65.453125 C 30.828125 66.609375 30.15625 67.1875 28.8125 67.1875 C 28.707031 67.1875 28.570312 67.179688 28.40625 67.15625 Z M 28.40625 64.765625 L 28.40625 66.375 C 28.550781 66.386719 28.664062 66.390625 28.75 66.390625 C 29.15625 66.390625 29.453125 66.324219 29.640625 66.1875 C 29.828125 66.054688 29.921875 65.835938 29.921875 65.53125 C 29.921875 65.011719 29.503906 64.75 28.671875 64.75 C 28.578125 64.75 28.488281 64.757812 28.40625 64.765625 Z M 28.40625 64.765625 "/>
<path style=" stroke:none;fill-rule:nonzero;fill:rgb(0%,0%,0%);fill-opacity:1;" d="M 31.382812 68.71875 L 31.710938 67.921875 C 32.054688 68.171875 32.398438 68.296875 32.742188 68.296875 C 33.261719 68.296875 33.523438 68.117188 33.523438 67.75 C 33.523438 67.585938 33.460938 67.421875 33.335938 67.265625 C 33.210938 67.109375 32.953125 66.9375 32.570312 66.75 C 32.195312 66.554688 31.9375 66.390625 31.804688 66.265625 C 31.667969 66.140625 31.5625 65.996094 31.492188 65.828125 C 31.417969 65.652344 31.382812 65.460938 31.382812 65.25 C 31.382812 64.867188 31.523438 64.546875 31.804688 64.296875 C 32.09375 64.039062 32.460938 63.90625 32.898438 63.90625 C 33.480469 63.90625 33.90625 64.015625 34.179688 64.234375 L 33.914062 65 C 33.601562 64.773438 33.265625 64.65625 32.914062 64.65625 C 32.714844 64.65625 32.558594 64.714844 32.445312 64.828125 C 32.328125 64.933594 32.273438 65.074219 32.273438 65.25 C 32.273438 65.53125 32.589844 65.828125 33.226562 66.140625 C 33.558594 66.308594 33.796875 66.460938 33.945312 66.59375 C 34.101562 66.730469 34.214844 66.890625 34.289062 67.078125 C 34.371094 67.265625 34.414062 67.46875 34.414062 67.6875 C 34.414062 68.09375 34.25 68.429688 33.929688 68.6875 C 33.605469 68.949219 33.171875 69.078125 32.632812 69.078125 C 32.171875 69.078125 31.757812 68.960938 31.382812 68.71875 Z M 31.382812 68.71875 "/>
<path style=" stroke:none;fill-rule:nonzero;fill:rgb(0%,0%,0%);fill-opacity:1;" d="M 35.054688 66.5625 L 36.867188 66.5625 L 36.867188 67.375 L 35.054688 67.375 Z M 35.054688 66.5625 "/>
<path style=" stroke:none;fill-rule:nonzero;fill:rgb(49.803162%,49.803162%,49.803162%);fill-opacity:1;" d="M 23 11 C 23 13.761719 20.761719 16 18 16 C 15.238281 16 13 13.761719 13 11 C 13 8.238281 15.238281 6 18 6 C 20.761719 6 23 8.238281 23 11 Z M 23 11 "/>
<path style="fill:none;stroke-width:0.8;stroke-linecap:round;stroke-linejoin:round;stroke:rgb(0%,0%,0%);stroke-opacity:1;stroke-miterlimit:4;" d="M 478 193.889771 L 478 233.889771 L 510 213.889771 Z M 478 193.889771 " transform="matrix(1,0,0,1,-329,-172.889771)"/>
<path style="fill:none;stroke-width:0.8;stroke-linecap:round;stroke-linejoin:round;stroke:rgb(0%,0%,0%);stroke-opacity:1;stroke-miterlimit:4;" d="M 478 201.889771 L 474 201.889771 " transform="matrix(1,0,0,1,-329,-172.889771)"/>
<path style="fill:none;stroke-width:0.8;stroke-linecap:round;stroke-linejoin:round;stroke:rgb(0%,0%,0%);stroke-opacity:1;stroke-miterlimit:4;" d="M 478 225.889771 L 474 225.889771 " transform="matrix(1,0,0,1,-329,-172.889771)"/>
<path style="fill:none;stroke-width:0.8;stroke-linecap:round;stroke-linejoin:round;stroke:rgb(0%,0%,0%);stroke-opacity:1;stroke-miterlimit:4;" d="M 514 213.889771 L 510 213.889771 " transform="matrix(1,0,0,1,-329,-172.889771)"/>
<path style="fill:none;stroke-width:0.8;stroke-linecap:round;stroke-linejoin:round;stroke:rgb(0%,0%,0%);stroke-opacity:1;stroke-miterlimit:4;" d="M 484.328125 225.889771 L 480 225.889771 " transform="matrix(1,0,0,1,-329,-172.889771)"/>
<path style="fill:none;stroke-width:0.8;stroke-linecap:round;stroke-linejoin:round;stroke:rgb(0%,0%,0%);stroke-opacity:1;stroke-miterlimit:4;" d="M 482.164062 228.069459 L 482.164062 223.71399 " transform="matrix(1,0,0,1,-329,-172.889771)"/>
<path style="fill:none;stroke-width:0.8;stroke-linecap:round;stroke-linejoin:round;stroke:rgb(0%,0%,0%);stroke-opacity:1;stroke-miterlimit:4;" d="M 480 201.889771 L 484.328125 201.889771 " transform="matrix(1,0,0,1,-329,-172.889771)"/>
<path style="fill:none;stroke-width:0.8;stroke-linecap:butt;stroke-linejoin:miter;stroke:rgb(0%,0%,0%);stroke-opacity:1;stroke-miterlimit:4;" d="M 542 181.889771 L 542 177.889771 L 494 177.889771 L 494 203.878052 " transform="matrix(1,0,0,1,-329,-172.889771)"/>
<path style="fill:none;stroke-width:0.8;stroke-linecap:butt;stroke-linejoin:miter;stroke:rgb(0%,0%,0%);stroke-opacity:1;stroke-miterlimit:4;" d="M 494 223.796021 L 494 249.889771 L 542 249.889771 L 542 245.889771 " transform="matrix(1,0,0,1,-329,-172.889771)"/>
<path style="fill:none;stroke-width:0.8;stroke-linecap:butt;stroke-linejoin:miter;stroke:rgb(0%,0%,0%);stroke-opacity:1;stroke-miterlimit:4;" d="M 542 201.889771 L 542 225.889771 " transform="matrix(1,0,0,1,-329,-172.889771)"/>
<path style=" stroke:none;fill-rule:nonzero;fill:rgb(0%,0%,0%);fill-opacity:1;" d="M 228.21875 25.09375 L 227.734375 25.09375 L 225.0625 17.84375 L 226.140625 17.84375 L 227.984375 23.109375 L 229.765625 17.84375 L 230.8125 17.84375 Z M 228.21875 25.09375 "/>
<path style=" stroke:none;fill-rule:nonzero;fill:rgb(0%,0%,0%);fill-opacity:1;" d="M 232.574219 22.25 L 232.574219 25 L 231.605469 25 L 231.605469 17.84375 C 232.34375 17.8125 232.792969 17.796875 232.949219 17.796875 C 235.019531 17.796875 236.058594 18.492188 236.058594 19.875 C 236.058594 21.492188 235.140625 22.296875 233.308594 22.296875 C 233.191406 22.296875 232.949219 22.28125 232.574219 22.25 Z M 232.574219 18.71875 L 232.574219 21.359375 C 232.988281 21.402344 233.207031 21.421875 233.230469 21.421875 C 234.449219 21.421875 235.058594 20.945312 235.058594 19.984375 C 235.058594 19.109375 234.40625 18.671875 233.105469 18.671875 C 232.980469 18.671875 232.800781 18.6875 232.574219 18.71875 Z M 232.574219 18.71875 "/>
<path style=" stroke:none;fill-rule:nonzero;fill:rgb(0%,0%,0%);fill-opacity:1;" d="M 236.847656 24.671875 L 237.207031 23.78125 C 237.394531 23.90625 237.621094 24.015625 237.894531 24.109375 C 238.164062 24.203125 238.402344 24.25 238.613281 24.25 C 238.996094 24.25 239.304688 24.148438 239.535156 23.9375 C 239.761719 23.730469 239.878906 23.464844 239.878906 23.140625 C 239.878906 22.890625 239.816406 22.667969 239.691406 22.46875 C 239.566406 22.261719 239.242188 22.03125 238.722656 21.78125 L 238.144531 21.515625 C 237.652344 21.289062 237.308594 21.015625 237.113281 20.703125 C 236.925781 20.390625 236.832031 20.015625 236.832031 19.578125 C 236.832031 19.046875 237.019531 18.605469 237.394531 18.25 C 237.777344 17.898438 238.261719 17.71875 238.847656 17.71875 C 239.636719 17.71875 240.191406 17.851562 240.503906 18.109375 L 240.222656 18.953125 C 240.085938 18.859375 239.882812 18.773438 239.613281 18.6875 C 239.351562 18.59375 239.105469 18.546875 238.878906 18.546875 C 238.542969 18.546875 238.285156 18.648438 238.097656 18.84375 C 237.910156 19.03125 237.816406 19.273438 237.816406 19.5625 C 237.816406 19.75 237.847656 19.917969 237.910156 20.0625 C 237.980469 20.210938 238.074219 20.335938 238.191406 20.4375 C 238.316406 20.542969 238.566406 20.683594 238.941406 20.859375 L 239.535156 21.140625 C 240.023438 21.371094 240.367188 21.648438 240.566406 21.96875 C 240.761719 22.292969 240.863281 22.699219 240.863281 23.1875 C 240.863281 23.730469 240.644531 24.1875 240.207031 24.5625 C 239.777344 24.9375 239.199219 25.125 238.472656 25.125 C 237.835938 25.125 237.292969 24.976562 236.847656 24.671875 Z M 236.847656 24.671875 "/>
<path style=" stroke:none;fill-rule:nonzero;fill:rgb(0%,0%,0%);fill-opacity:1;" d="M 244.226562 21.546875 L 245.929688 21.546875 L 245.929688 22.234375 L 244.226562 22.234375 L 244.226562 23.921875 L 243.539062 23.921875 L 243.539062 22.234375 L 241.835938 22.234375 L 241.835938 21.546875 L 243.539062 21.546875 L 243.539062 19.875 L 244.226562 19.875 Z M 244.226562 21.546875 "/>
<path style="fill:none;stroke-width:0.8;stroke-linecap:round;stroke-linejoin:round;stroke:rgb(0%,0%,0%);stroke-opacity:1;stroke-miterlimit:4;" d="M 544 189.889771 L 540 189.889771 " transform="matrix(1,0,0,1,-329,-172.889771)"/>
<path style="fill:none;stroke-width:0.8;stroke-linecap:round;stroke-linejoin:round;stroke:rgb(0%,0%,0%);stroke-opacity:1;stroke-miterlimit:4;" d="M 542 192.24524 L 542 187.889771 " transform="matrix(1,0,0,1,-329,-172.889771)"/>
<path style="fill:none;stroke-width:0.8;stroke-linecap:round;stroke-linejoin:round;stroke:rgb(0%,0%,0%);stroke-opacity:1;stroke-miterlimit:4;" d="M 539.75 197.846802 L 544.078125 197.846802 " transform="matrix(1,0,0,1,-329,-172.889771)"/>
<path style="fill:none;stroke-width:0.8;stroke-linecap:round;stroke-linejoin:round;stroke:rgb(0%,0%,0%);stroke-opacity:1;stroke-miterlimit:4;" d="M 550 194.073365 C 550 198.592896 546.417969 202.253052 542 202.253052 C 537.582031 202.253052 534 198.592896 534 194.073365 C 534 189.553834 537.582031 185.889771 542 185.889771 C 546.417969 185.889771 550 189.553834 550 194.073365 Z M 550 194.073365 " transform="matrix(1,0,0,1,-329,-172.889771)"/>
<path style="fill:none;stroke-width:0.8;stroke-linecap:round;stroke-linejoin:round;stroke:rgb(0%,0%,0%);stroke-opacity:1;stroke-miterlimit:4;" d="M 542 181.889771 L 542 185.889771 " transform="matrix(1,0,0,1,-329,-172.889771)"/>
<path style="fill:none;stroke-width:0.8;stroke-linecap:round;stroke-linejoin:round;stroke:rgb(0%,0%,0%);stroke-opacity:1;stroke-miterlimit:4;" d="M 542 202.253052 L 542 205.889771 " transform="matrix(1,0,0,1,-329,-172.889771)"/>
<path style=" stroke:none;fill-rule:nonzero;fill:rgb(0%,0%,0%);fill-opacity:1;" d="M 228.21875 65.09375 L 227.734375 65.09375 L 225.0625 57.84375 L 226.140625 57.84375 L 227.984375 63.109375 L 229.765625 57.84375 L 230.8125 57.84375 Z M 228.21875 65.09375 "/>
<path style=" stroke:none;fill-rule:nonzero;fill:rgb(0%,0%,0%);fill-opacity:1;" d="M 232.574219 62.25 L 232.574219 65 L 231.605469 65 L 231.605469 57.84375 C 232.34375 57.8125 232.792969 57.796875 232.949219 57.796875 C 235.019531 57.796875 236.058594 58.492188 236.058594 59.875 C 236.058594 61.492188 235.140625 62.296875 233.308594 62.296875 C 233.191406 62.296875 232.949219 62.28125 232.574219 62.25 Z M 232.574219 58.71875 L 232.574219 61.359375 C 232.988281 61.402344 233.207031 61.421875 233.230469 61.421875 C 234.449219 61.421875 235.058594 60.945312 235.058594 59.984375 C 235.058594 59.109375 234.40625 58.671875 233.105469 58.671875 C 232.980469 58.671875 232.800781 58.6875 232.574219 58.71875 Z M 232.574219 58.71875 "/>
<path style=" stroke:none;fill-rule:nonzero;fill:rgb(0%,0%,0%);fill-opacity:1;" d="M 236.847656 64.671875 L 237.207031 63.78125 C 237.394531 63.90625 237.621094 64.015625 237.894531 64.109375 C 238.164062 64.203125 238.402344 64.25 238.613281 64.25 C 238.996094 64.25 239.304688 64.148438 239.535156 63.9375 C 239.761719 63.730469 239.878906 63.464844 239.878906 63.140625 C 239.878906 62.890625 239.816406 62.667969 239.691406 62.46875 C 239.566406 62.261719 239.242188 62.03125 238.722656 61.78125 L 238.144531 61.515625 C 237.652344 61.289062 237.308594 61.015625 237.113281 60.703125 C 236.925781 60.390625 236.832031 60.015625 236.832031 59.578125 C 236.832031 59.046875 237.019531 58.605469 237.394531 58.25 C 237.777344 57.898438 238.261719 57.71875 238.847656 57.71875 C 239.636719 57.71875 240.191406 57.851562 240.503906 58.109375 L 240.222656 58.953125 C 240.085938 58.859375 239.882812 58.773438 239.613281 58.6875 C 239.351562 58.59375 239.105469 58.546875 238.878906 58.546875 C 238.542969 58.546875 238.285156 58.648438 238.097656 58.84375 C 237.910156 59.03125 237.816406 59.273438 237.816406 59.5625 C 237.816406 59.75 237.847656 59.917969 237.910156 60.0625 C 237.980469 60.210938 238.074219 60.335938 238.191406 60.4375 C 238.316406 60.542969 238.566406 60.683594 238.941406 60.859375 L 239.535156 61.140625 C 240.023438 61.371094 240.367188 61.648438 240.566406 61.96875 C 240.761719 62.292969 240.863281 62.699219 240.863281 63.1875 C 240.863281 63.730469 240.644531 64.1875 240.207031 64.5625 C 239.777344 64.9375 239.199219 65.125 238.472656 65.125 C 237.835938 65.125 237.292969 64.976562 236.847656 64.671875 Z M 236.847656 64.671875 "/>
<path style=" stroke:none;fill-rule:nonzero;fill:rgb(0%,0%,0%);fill-opacity:1;" d="M 242.023438 61.671875 L 244.101562 61.671875 L 244.101562 62.53125 L 242.023438 62.53125 Z M 242.023438 61.671875 "/>
<path style="fill:none;stroke-width:0.8;stroke-linecap:round;stroke-linejoin:round;stroke:rgb(0%,0%,0%);stroke-opacity:1;stroke-miterlimit:4;" d="M 544 229.889771 L 540 229.889771 " transform="matrix(1,0,0,1,-329,-172.889771)"/>
<path style="fill:none;stroke-width:0.8;stroke-linecap:round;stroke-linejoin:round;stroke:rgb(0%,0%,0%);stroke-opacity:1;stroke-miterlimit:4;" d="M 542 232.24524 L 542 227.889771 " transform="matrix(1,0,0,1,-329,-172.889771)"/>
<path style="fill:none;stroke-width:0.8;stroke-linecap:round;stroke-linejoin:round;stroke:rgb(0%,0%,0%);stroke-opacity:1;stroke-miterlimit:4;" d="M 539.75 237.846802 L 544.078125 237.846802 " transform="matrix(1,0,0,1,-329,-172.889771)"/>
<path style="fill:none;stroke-width:0.8;stroke-linecap:round;stroke-linejoin:round;stroke:rgb(0%,0%,0%);stroke-opacity:1;stroke-miterlimit:4;" d="M 550 234.073365 C 550 238.592896 546.417969 242.253052 542 242.253052 C 537.582031 242.253052 534 238.592896 534 234.073365 C 534 229.553834 537.582031 225.889771 542 225.889771 C 546.417969 225.889771 550 229.553834 550 234.073365 Z M 550 234.073365 " transform="matrix(1,0,0,1,-329,-172.889771)"/>
<path style="fill:none;stroke-width:0.8;stroke-linecap:round;stroke-linejoin:round;stroke:rgb(0%,0%,0%);stroke-opacity:1;stroke-miterlimit:4;" d="M 542 221.889771 L 542 225.889771 " transform="matrix(1,0,0,1,-329,-172.889771)"/>
<path style="fill:none;stroke-width:0.8;stroke-linecap:round;stroke-linejoin:round;stroke:rgb(0%,0%,0%);stroke-opacity:1;stroke-miterlimit:4;" d="M 542 242.253052 L 542 245.889771 " transform="matrix(1,0,0,1,-329,-172.889771)"/>
<path style=" stroke:none;fill-rule:nonzero;fill:rgb(0%,0%,0%);fill-opacity:1;" d="M 215 41 C 215 42.105469 214.105469 43 213 43 C 211.894531 43 211 42.105469 211 41 C 211 39.898438 211.894531 39 213 39 C 214.105469 39 215 39.898438 215 41 Z M 215 41 "/>
<path style="fill:none;stroke-width:0.8;stroke-linecap:round;stroke-linejoin:miter;stroke:rgb(0%,0%,0%);stroke-opacity:1;stroke-miterlimit:4;" d="M 589.875 224.604615 L 574.605469 224.604615 " transform="matrix(1,0,0,1,-329,-172.889771)"/>
<path style="fill:none;stroke-width:0.8;stroke-linecap:round;stroke-linejoin:miter;stroke:rgb(0%,0%,0%);stroke-opacity:1;stroke-miterlimit:4;" d="M 586.949219 226.862427 L 577.53125 226.862427 " transform="matrix(1,0,0,1,-329,-172.889771)"/>
<path style="fill:none;stroke-width:0.8;stroke-linecap:round;stroke-linejoin:miter;stroke:rgb(0%,0%,0%);stroke-opacity:1;stroke-miterlimit:4;" d="M 584.226562 229.12024 L 580.257812 229.12024 " transform="matrix(1,0,0,1,-329,-172.889771)"/>
<path style="fill:none;stroke-width:0.8;stroke-linecap:round;stroke-linejoin:round;stroke:rgb(0%,0%,0%);stroke-opacity:1;stroke-miterlimit:4;" d="M 582 217.889771 L 582 224.417115 " transform="matrix(1,0,0,1,-329,-172.889771)"/>
<path style="fill:none;stroke-width:0.8;stroke-linecap:butt;stroke-linejoin:miter;stroke:rgb(0%,0%,0%);stroke-opacity:1;stroke-miterlimit:4;" d="M 542 213.889771 L 582 213.889771 L 582 217.889771 " transform="matrix(1,0,0,1,-329,-172.889771)"/>
<path style=" stroke:none;fill-rule:nonzero;fill:rgb(100%,0%,0%);fill-opacity:1;" d="M 143.164062 26.601562 L 143.164062 26.445312 L 144.960938 23.695312 C 145.335938 23.125 145.523438 22.632812 145.523438 22.226562 C 145.523438 21.707031 145.226562 21.445312 144.632812 21.445312 C 144.421875 21.445312 144.226562 21.503906 144.039062 21.617188 C 143.851562 21.722656 143.714844 21.859375 143.632812 22.023438 L 143.132812 21.617188 C 143.214844 21.359375 143.386719 21.15625 143.648438 21.007812 C 143.90625 20.851562 144.21875 20.773438 144.585938 20.773438 C 145.136719 20.773438 145.570312 20.90625 145.882812 21.164062 C 146.195312 21.414062 146.351562 21.769531 146.351562 22.226562 C 146.351562 22.664062 146.140625 23.207031 145.726562 23.851562 L 144.445312 25.898438 L 146.679688 25.898438 L 146.679688 26.601562 Z M 143.164062 26.601562 "/>
<path style=" stroke:none;fill-rule:nonzero;fill:rgb(100%,0%,0%);fill-opacity:1;" d="M 143.320312 50.195312 L 143.695312 49.585938 C 143.953125 49.867188 144.277344 50.007812 144.664062 50.007812 C 145.390625 50.007812 145.757812 49.65625 145.757812 48.945312 C 145.757812 48.625 145.648438 48.363281 145.429688 48.164062 C 145.21875 47.96875 144.945312 47.867188 144.601562 47.867188 L 144.539062 47.867188 L 144.539062 47.226562 L 144.570312 47.226562 C 145.234375 47.226562 145.570312 46.9375 145.570312 46.351562 C 145.570312 45.75 145.257812 45.445312 144.632812 45.445312 C 144.289062 45.445312 144.015625 45.554688 143.820312 45.773438 L 143.476562 45.242188 C 143.714844 44.929688 144.121094 44.773438 144.695312 44.773438 C 145.195312 44.773438 145.601562 44.910156 145.914062 45.179688 C 146.226562 45.441406 146.382812 45.78125 146.382812 46.195312 C 146.382812 46.519531 146.292969 46.804688 146.117188 47.054688 C 145.9375 47.296875 145.734375 47.457031 145.507812 47.539062 C 145.828125 47.644531 146.085938 47.828125 146.273438 48.085938 C 146.46875 48.335938 146.570312 48.644531 146.570312 49.007812 C 146.570312 49.539062 146.402344 49.953125 146.070312 50.242188 C 145.734375 50.535156 145.265625 50.679688 144.664062 50.679688 C 144.402344 50.679688 144.148438 50.632812 143.898438 50.539062 C 143.65625 50.445312 143.464844 50.332031 143.320312 50.195312 Z M 143.320312 50.195312 "/>
<path style=" stroke:none;fill-rule:nonzero;fill:rgb(100%,0%,0%);fill-opacity:1;" d="M 170.351562 55.4375 L 170.351562 57 L 169.601562 57 L 169.601562 55.4375 L 166.992188 55.4375 L 166.992188 55 L 170.070312 51.25 L 170.351562 51.25 L 170.351562 54.84375 L 170.929688 54.84375 L 170.929688 55.4375 Z M 169.601562 52.8125 L 167.929688 54.84375 L 169.601562 54.84375 Z M 169.601562 52.8125 "/>
<path style=" stroke:none;fill-rule:nonzero;fill:rgb(100%,0%,0%);fill-opacity:1;" d="M 185.523438 32.773438 L 185.898438 33.195312 C 185.667969 33.289062 185.335938 33.597656 184.898438 34.117188 C 184.46875 34.640625 184.234375 35.046875 184.195312 35.335938 C 184.402344 35.128906 184.699219 35.023438 185.085938 35.023438 C 185.59375 35.023438 186 35.1875 186.304688 35.507812 C 186.605469 35.832031 186.757812 36.273438 186.757812 36.835938 C 186.757812 37.398438 186.601562 37.851562 186.289062 38.195312 C 185.976562 38.53125 185.585938 38.695312 185.117188 38.695312 C 183.855469 38.695312 183.226562 37.863281 183.226562 36.195312 C 183.226562 35.507812 183.46875 34.804688 183.960938 34.085938 C 184.449219 33.359375 184.96875 32.921875 185.523438 32.773438 Z M 184.054688 36.804688 C 184.054688 37.628906 184.386719 38.039062 185.054688 38.039062 C 185.335938 38.039062 185.554688 37.9375 185.710938 37.726562 C 185.875 37.507812 185.960938 37.222656 185.960938 36.867188 C 185.960938 36.515625 185.871094 36.226562 185.695312 36.007812 C 185.527344 35.789062 185.308594 35.679688 185.039062 35.679688 C 184.382812 35.679688 184.054688 36.054688 184.054688 36.804688 Z M 184.054688 36.804688 "/>
<path style=" stroke:none;fill-rule:nonzero;fill:rgb(100%,0%,0%);fill-opacity:1;" d="M 168.570312 29 L 167.710938 29 C 167.898438 28.386719 168.21875 27.578125 168.679688 26.578125 C 169.136719 25.570312 169.554688 24.710938 169.929688 24 L 167.226562 24 L 167.226562 23.25 L 170.945312 23.25 L 170.945312 23.5625 L 170.429688 24.546875 C 170.261719 24.882812 170.085938 25.25 169.898438 25.65625 C 169.71875 26.054688 169.542969 26.460938 169.367188 26.875 C 169.1875 27.292969 169.03125 27.683594 168.898438 28.046875 C 168.761719 28.402344 168.652344 28.71875 168.570312 29 Z M 168.570312 29 "/>
<path style="fill:none;stroke-width:0.8;stroke-linecap:butt;stroke-linejoin:miter;stroke:rgb(0%,0%,0%);stroke-opacity:1;stroke-miterlimit:4;" d="M 474 225.889771 L 466 225.889771 " transform="matrix(1,0,0,1,-329,-172.889771)"/>
<path style="fill:none;stroke-width:0.8;stroke-linecap:butt;stroke-linejoin:miter;stroke:rgb(0%,0%,0%);stroke-opacity:1;stroke-miterlimit:4;" d="M 474 201.889771 L 466 201.889771 " transform="matrix(1,0,0,1,-329,-172.889771)"/>
<path style="fill:none;stroke-width:0.8;stroke-linecap:butt;stroke-linejoin:miter;stroke:rgb(0%,0%,0%);stroke-opacity:1;stroke-miterlimit:4;" d="M 514 213.889771 L 522 213.889771 " transform="matrix(1,0,0,1,-329,-172.889771)"/>
</g>
</defs>
<g id="surface1">
<use xlink:href="#surface4"/>
</g>
</svg>
