<?xml version="1.0" encoding="UTF-8"?>
<svg xmlns="http://www.w3.org/2000/svg" xmlns:xlink="http://www.w3.org/1999/xlink" width="202pt" height="162pt" viewBox="0 0 202 162" version="1.2">
<defs>
<clipPath id="clip2">
  <path d="M 188 24.109375 L 201 24.109375 L 201 138.109375 L 188 138.109375 Z M 188 24.109375 "/>
</clipPath>
<clipPath id="clip1">
  <rect width="202" height="162"/>
</clipPath>
<g id="surface4" clip-path="url(#clip1)">
<path style="fill:none;stroke-width:0.4;stroke-linecap:round;stroke-linejoin:miter;stroke:rgb(0%,0%,0%);stroke-opacity:1;stroke-miterlimit:4;" d="M 20 541.889771 L 40 541.889771 L 40 561.889771 L 20 561.889771 Z M 20 541.889771 " transform="matrix(1,0,0,1,-19,-540.889771)"/>
<path style="fill:none;stroke-width:0.4;stroke-linecap:round;stroke-linejoin:miter;stroke:rgb(0%,0%,0%);stroke-opacity:1;stroke-miterlimit:4;" d="M 20 561.889771 L 40 561.889771 L 40 581.889771 L 20 581.889771 Z M 20 561.889771 " transform="matrix(1,0,0,1,-19,-540.889771)"/>
<path style="fill:none;stroke-width:0.4;stroke-linecap:round;stroke-linejoin:miter;stroke:rgb(0%,0%,0%);stroke-opacity:1;stroke-miterlimit:4;" d="M 20 581.889771 L 40 581.889771 L 40 601.889771 L 20 601.889771 Z M 20 581.889771 " transform="matrix(1,0,0,1,-19,-540.889771)"/>
<path style="fill:none;stroke-width:0.4;stroke-linecap:round;stroke-linejoin:miter;stroke:rgb(0%,0%,0%);stroke-opacity:1;stroke-miterlimit:4;" d="M 20 601.889771 L 40 601.889771 L 40 621.889771 L 20 621.889771 Z M 20 601.889771 " transform="matrix(1,0,0,1,-19,-540.889771)"/>
<path style="fill:none;stroke-width:0.4;stroke-linecap:round;stroke-linejoin:miter;stroke:rgb(0%,0%,0%);stroke-opacity:1;stroke-miterlimit:4;" d="M 20 621.889771 L 40 621.889771 L 40 641.889771 L 20 641.889771 Z M 20 621.889771 " transform="matrix(1,0,0,1,-19,-540.889771)"/>
<path style="fill:none;stroke-width:0.4;stroke-linecap:round;stroke-linejoin:miter;stroke:rgb(0%,0%,0%);stroke-opacity:1;stroke-miterlimit:4;" d="M 20 641.889771 L 40 641.889771 L 40 661.889771 L 20 661.889771 Z M 20 641.889771 " transform="matrix(1,0,0,1,-19,-540.889771)"/>
<path style="fill:none;stroke-width:0.4;stroke-linecap:round;stroke-linejoin:miter;stroke:rgb(0%,0%,0%);stroke-opacity:1;stroke-miterlimit:4;" d="M 20 661.889771 L 40 661.889771 L 40 681.889771 L 20 681.889771 Z M 20 661.889771 " transform="matrix(1,0,0,1,-19,-540.889771)"/>
<path style="fill:none;stroke-width:0.4;stroke-linecap:round;stroke-linejoin:miter;stroke:rgb(0%,0%,0%);stroke-opacity:1;stroke-miterlimit:4;" d="M 20 681.889771 L 40 681.889771 L 40 701.889771 L 20 701.889771 Z M 20 681.889771 " transform="matrix(1,0,0,1,-19,-540.889771)"/>
<path style="fill:none;stroke-width:0.4;stroke-linecap:butt;stroke-linejoin:miter;stroke:rgb(0%,0%,0%);stroke-opacity:1;stroke-miterlimit:4;" d="M 24 619.889771 L 24 623.889771 " transform="matrix(1,0,0,1,-19,-540.889771)"/>
<path style="fill:none;stroke-width:0.4;stroke-linecap:butt;stroke-linejoin:miter;stroke:rgb(0%,0%,0%);stroke-opacity:1;stroke-miterlimit:4;" d="M 28 619.889771 L 28 623.889771 " transform="matrix(1,0,0,1,-19,-540.889771)"/>
<path style="fill:none;stroke-width:0.4;stroke-linecap:butt;stroke-linejoin:miter;stroke:rgb(0%,0%,0%);stroke-opacity:1;stroke-miterlimit:4;" d="M 32 619.889771 L 32 623.889771 " transform="matrix(1,0,0,1,-19,-540.889771)"/>
<path style="fill:none;stroke-width:0.4;stroke-linecap:butt;stroke-linejoin:miter;stroke:rgb(0%,0%,0%);stroke-opacity:1;stroke-miterlimit:4;" d="M 36 619.889771 L 36 623.889771 " transform="matrix(1,0,0,1,-19,-540.889771)"/>
<path style="fill:none;stroke-width:0.4;stroke-linecap:round;stroke-linejoin:miter;stroke:rgb(0%,0%,0%);stroke-opacity:1;stroke-miterlimit:4;" d="M 40 541.889771 L 60 541.889771 L 60 561.889771 L 40 561.889771 Z M 40 541.889771 " transform="matrix(1,0,0,1,-19,-540.889771)"/>
<path style="fill:none;stroke-width:0.4;stroke-linecap:round;stroke-linejoin:miter;stroke:rgb(0%,0%,0%);stroke-opacity:1;stroke-miterlimit:4;" d="M 40 561.889771 L 60 561.889771 L 60 581.889771 L 40 581.889771 Z M 40 561.889771 " transform="matrix(1,0,0,1,-19,-540.889771)"/>
<path style="fill:none;stroke-width:0.4;stroke-linecap:round;stroke-linejoin:miter;stroke:rgb(0%,0%,0%);stroke-opacity:1;stroke-miterlimit:4;" d="M 40 581.889771 L 60 581.889771 L 60 601.889771 L 40 601.889771 Z M 40 581.889771 " transform="matrix(1,0,0,1,-19,-540.889771)"/>
<path style="fill:none;stroke-width:0.4;stroke-linecap:round;stroke-linejoin:miter;stroke:rgb(0%,0%,0%);stroke-opacity:1;stroke-miterlimit:4;" d="M 40 601.889771 L 60 601.889771 L 60 621.889771 L 40 621.889771 Z M 40 601.889771 " transform="matrix(1,0,0,1,-19,-540.889771)"/>
<path style="fill:none;stroke-width:0.4;stroke-linecap:round;stroke-linejoin:miter;stroke:rgb(0%,0%,0%);stroke-opacity:1;stroke-miterlimit:4;" d="M 40 621.889771 L 60 621.889771 L 60 641.889771 L 40 641.889771 Z M 40 621.889771 " transform="matrix(1,0,0,1,-19,-540.889771)"/>
<path style="fill:none;stroke-width:0.4;stroke-linecap:round;stroke-linejoin:miter;stroke:rgb(0%,0%,0%);stroke-opacity:1;stroke-miterlimit:4;" d="M 40 641.889771 L 60 641.889771 L 60 661.889771 L 40 661.889771 Z M 40 641.889771 " transform="matrix(1,0,0,1,-19,-540.889771)"/>
<path style="fill:none;stroke-width:0.4;stroke-linecap:round;stroke-linejoin:miter;stroke:rgb(0%,0%,0%);stroke-opacity:1;stroke-miterlimit:4;" d="M 40 661.889771 L 60 661.889771 L 60 681.889771 L 40 681.889771 Z M 40 661.889771 " transform="matrix(1,0,0,1,-19,-540.889771)"/>
<path style="fill:none;stroke-width:0.4;stroke-linecap:round;stroke-linejoin:miter;stroke:rgb(0%,0%,0%);stroke-opacity:1;stroke-miterlimit:4;" d="M 40 681.889771 L 60 681.889771 L 60 701.889771 L 40 701.889771 Z M 40 681.889771 " transform="matrix(1,0,0,1,-19,-540.889771)"/>
<path style="fill:none;stroke-width:0.4;stroke-linecap:butt;stroke-linejoin:miter;stroke:rgb(0%,0%,0%);stroke-opacity:1;stroke-miterlimit:4;" d="M 44 619.889771 L 44 623.889771 " transform="matrix(1,0,0,1,-19,-540.889771)"/>
<path style="fill:none;stroke-width:0.4;stroke-linecap:butt;stroke-linejoin:miter;stroke:rgb(0%,0%,0%);stroke-opacity:1;stroke-miterlimit:4;" d="M 48 619.889771 L 48 623.889771 " transform="matrix(1,0,0,1,-19,-540.889771)"/>
<path style="fill:none;stroke-width:0.4;stroke-linecap:butt;stroke-linejoin:miter;stroke:rgb(0%,0%,0%);stroke-opacity:1;stroke-miterlimit:4;" d="M 52 619.889771 L 52 623.889771 " transform="matrix(1,0,0,1,-19,-540.889771)"/>
<path style="fill:none;stroke-width:0.4;stroke-linecap:butt;stroke-linejoin:miter;stroke:rgb(0%,0%,0%);stroke-opacity:1;stroke-miterlimit:4;" d="M 56 619.889771 L 56 623.889771 " transform="matrix(1,0,0,1,-19,-540.889771)"/>
<path style="fill:none;stroke-width:0.4;stroke-linecap:round;stroke-linejoin:miter;stroke:rgb(0%,0%,0%);stroke-opacity:1;stroke-miterlimit:4;" d="M 60 541.889771 L 80 541.889771 L 80 561.889771 L 60 561.889771 Z M 60 541.889771 " transform="matrix(1,0,0,1,-19,-540.889771)"/>
<path style="fill:none;stroke-width:0.4;stroke-linecap:round;stroke-linejoin:miter;stroke:rgb(0%,0%,0%);stroke-opacity:1;stroke-miterlimit:4;" d="M 60 561.889771 L 80 561.889771 L 80 581.889771 L 60 581.889771 Z M 60 561.889771 " transform="matrix(1,0,0,1,-19,-540.889771)"/>
<path style="fill:none;stroke-width:0.4;stroke-linecap:round;stroke-linejoin:miter;stroke:rgb(0%,0%,0%);stroke-opacity:1;stroke-miterlimit:4;" d="M 60 581.889771 L 80 581.889771 L 80 601.889771 L 60 601.889771 Z M 60 581.889771 " transform="matrix(1,0,0,1,-19,-540.889771)"/>
<path style="fill:none;stroke-width:0.4;stroke-linecap:round;stroke-linejoin:miter;stroke:rgb(0%,0%,0%);stroke-opacity:1;stroke-miterlimit:4;" d="M 60 601.889771 L 80 601.889771 L 80 621.889771 L 60 621.889771 Z M 60 601.889771 " transform="matrix(1,0,0,1,-19,-540.889771)"/>
<path style="fill:none;stroke-width:0.4;stroke-linecap:round;stroke-linejoin:miter;stroke:rgb(0%,0%,0%);stroke-opacity:1;stroke-miterlimit:4;" d="M 60 621.889771 L 80 621.889771 L 80 641.889771 L 60 641.889771 Z M 60 621.889771 " transform="matrix(1,0,0,1,-19,-540.889771)"/>
<path style="fill:none;stroke-width:0.4;stroke-linecap:round;stroke-linejoin:miter;stroke:rgb(0%,0%,0%);stroke-opacity:1;stroke-miterlimit:4;" d="M 60 641.889771 L 80 641.889771 L 80 661.889771 L 60 661.889771 Z M 60 641.889771 " transform="matrix(1,0,0,1,-19,-540.889771)"/>
<path style="fill:none;stroke-width:0.4;stroke-linecap:round;stroke-linejoin:miter;stroke:rgb(0%,0%,0%);stroke-opacity:1;stroke-miterlimit:4;" d="M 60 661.889771 L 80 661.889771 L 80 681.889771 L 60 681.889771 Z M 60 661.889771 " transform="matrix(1,0,0,1,-19,-540.889771)"/>
<path style="fill:none;stroke-width:0.4;stroke-linecap:round;stroke-linejoin:miter;stroke:rgb(0%,0%,0%);stroke-opacity:1;stroke-miterlimit:4;" d="M 60 681.889771 L 80 681.889771 L 80 701.889771 L 60 701.889771 Z M 60 681.889771 " transform="matrix(1,0,0,1,-19,-540.889771)"/>
<path style="fill:none;stroke-width:0.4;stroke-linecap:butt;stroke-linejoin:miter;stroke:rgb(0%,0%,0%);stroke-opacity:1;stroke-miterlimit:4;" d="M 64 619.889771 L 64 623.889771 " transform="matrix(1,0,0,1,-19,-540.889771)"/>
<path style="fill:none;stroke-width:0.4;stroke-linecap:butt;stroke-linejoin:miter;stroke:rgb(0%,0%,0%);stroke-opacity:1;stroke-miterlimit:4;" d="M 68 619.889771 L 68 623.889771 " transform="matrix(1,0,0,1,-19,-540.889771)"/>
<path style="fill:none;stroke-width:0.4;stroke-linecap:butt;stroke-linejoin:miter;stroke:rgb(0%,0%,0%);stroke-opacity:1;stroke-miterlimit:4;" d="M 72 619.889771 L 72 623.889771 " transform="matrix(1,0,0,1,-19,-540.889771)"/>
<path style="fill:none;stroke-width:0.4;stroke-linecap:butt;stroke-linejoin:miter;stroke:rgb(0%,0%,0%);stroke-opacity:1;stroke-miterlimit:4;" d="M 76 619.889771 L 76 623.889771 " transform="matrix(1,0,0,1,-19,-540.889771)"/>
<path style="fill:none;stroke-width:0.4;stroke-linecap:round;stroke-linejoin:miter;stroke:rgb(0%,0%,0%);stroke-opacity:1;stroke-miterlimit:4;" d="M 80 541.889771 L 100 541.889771 L 100 561.889771 L 80 561.889771 Z M 80 541.889771 " transform="matrix(1,0,0,1,-19,-540.889771)"/>
<path style="fill:none;stroke-width:0.4;stroke-linecap:round;stroke-linejoin:miter;stroke:rgb(0%,0%,0%);stroke-opacity:1;stroke-miterlimit:4;" d="M 80 561.889771 L 100 561.889771 L 100 581.889771 L 80 581.889771 Z M 80 561.889771 " transform="matrix(1,0,0,1,-19,-540.889771)"/>
<path style="fill:none;stroke-width:0.4;stroke-linecap:round;stroke-linejoin:miter;stroke:rgb(0%,0%,0%);stroke-opacity:1;stroke-miterlimit:4;" d="M 80 581.889771 L 100 581.889771 L 100 601.889771 L 80 601.889771 Z M 80 581.889771 " transform="matrix(1,0,0,1,-19,-540.889771)"/>
<path style="fill:none;stroke-width:0.4;stroke-linecap:round;stroke-linejoin:miter;stroke:rgb(0%,0%,0%);stroke-opacity:1;stroke-miterlimit:4;" d="M 80 601.889771 L 100 601.889771 L 100 621.889771 L 80 621.889771 Z M 80 601.889771 " transform="matrix(1,0,0,1,-19,-540.889771)"/>
<path style="fill:none;stroke-width:0.4;stroke-linecap:round;stroke-linejoin:miter;stroke:rgb(0%,0%,0%);stroke-opacity:1;stroke-miterlimit:4;" d="M 80 621.889771 L 100 621.889771 L 100 641.889771 L 80 641.889771 Z M 80 621.889771 " transform="matrix(1,0,0,1,-19,-540.889771)"/>
<path style="fill:none;stroke-width:0.4;stroke-linecap:round;stroke-linejoin:miter;stroke:rgb(0%,0%,0%);stroke-opacity:1;stroke-miterlimit:4;" d="M 80 641.889771 L 100 641.889771 L 100 661.889771 L 80 661.889771 Z M 80 641.889771 " transform="matrix(1,0,0,1,-19,-540.889771)"/>
<path style="fill:none;stroke-width:0.4;stroke-linecap:round;stroke-linejoin:miter;stroke:rgb(0%,0%,0%);stroke-opacity:1;stroke-miterlimit:4;" d="M 80 661.889771 L 100 661.889771 L 100 681.889771 L 80 681.889771 Z M 80 661.889771 " transform="matrix(1,0,0,1,-19,-540.889771)"/>
<path style="fill:none;stroke-width:0.4;stroke-linecap:round;stroke-linejoin:miter;stroke:rgb(0%,0%,0%);stroke-opacity:1;stroke-miterlimit:4;" d="M 80 681.889771 L 100 681.889771 L 100 701.889771 L 80 701.889771 Z M 80 681.889771 " transform="matrix(1,0,0,1,-19,-540.889771)"/>
<path style="fill:none;stroke-width:0.4;stroke-linecap:butt;stroke-linejoin:miter;stroke:rgb(0%,0%,0%);stroke-opacity:1;stroke-miterlimit:4;" d="M 84 619.889771 L 84 623.889771 " transform="matrix(1,0,0,1,-19,-540.889771)"/>
<path style="fill:none;stroke-width:0.4;stroke-linecap:butt;stroke-linejoin:miter;stroke:rgb(0%,0%,0%);stroke-opacity:1;stroke-miterlimit:4;" d="M 88 619.889771 L 88 623.889771 " transform="matrix(1,0,0,1,-19,-540.889771)"/>
<path style="fill:none;stroke-width:0.4;stroke-linecap:butt;stroke-linejoin:miter;stroke:rgb(0%,0%,0%);stroke-opacity:1;stroke-miterlimit:4;" d="M 92 619.889771 L 92 623.889771 " transform="matrix(1,0,0,1,-19,-540.889771)"/>
<path style="fill:none;stroke-width:0.4;stroke-linecap:butt;stroke-linejoin:miter;stroke:rgb(0%,0%,0%);stroke-opacity:1;stroke-miterlimit:4;" d="M 96 619.889771 L 96 623.889771 " transform="matrix(1,0,0,1,-19,-540.889771)"/>
<path style="fill:none;stroke-width:0.4;stroke-linecap:round;stroke-linejoin:miter;stroke:rgb(0%,0%,0%);stroke-opacity:1;stroke-miterlimit:4;" d="M 100 541.889771 L 120 541.889771 L 120 561.889771 L 100 561.889771 Z M 100 541.889771 " transform="matrix(1,0,0,1,-19,-540.889771)"/>
<path style="fill:none;stroke-width:0.4;stroke-linecap:round;stroke-linejoin:miter;stroke:rgb(0%,0%,0%);stroke-opacity:1;stroke-miterlimit:4;" d="M 100 561.889771 L 120 561.889771 L 120 581.889771 L 100 581.889771 Z M 100 561.889771 " transform="matrix(1,0,0,1,-19,-540.889771)"/>
<path style="fill:none;stroke-width:0.4;stroke-linecap:round;stroke-linejoin:miter;stroke:rgb(0%,0%,0%);stroke-opacity:1;stroke-miterlimit:4;" d="M 100 581.889771 L 120 581.889771 L 120 601.889771 L 100 601.889771 Z M 100 581.889771 " transform="matrix(1,0,0,1,-19,-540.889771)"/>
<path style="fill:none;stroke-width:0.4;stroke-linecap:round;stroke-linejoin:miter;stroke:rgb(0%,0%,0%);stroke-opacity:1;stroke-miterlimit:4;" d="M 100 601.889771 L 120 601.889771 L 120 621.889771 L 100 621.889771 Z M 100 601.889771 " transform="matrix(1,0,0,1,-19,-540.889771)"/>
<path style="fill:none;stroke-width:0.4;stroke-linecap:round;stroke-linejoin:miter;stroke:rgb(0%,0%,0%);stroke-opacity:1;stroke-miterlimit:4;" d="M 100 621.889771 L 120 621.889771 L 120 641.889771 L 100 641.889771 Z M 100 621.889771 " transform="matrix(1,0,0,1,-19,-540.889771)"/>
<path style="fill:none;stroke-width:0.4;stroke-linecap:round;stroke-linejoin:miter;stroke:rgb(0%,0%,0%);stroke-opacity:1;stroke-miterlimit:4;" d="M 100 641.889771 L 120 641.889771 L 120 661.889771 L 100 661.889771 Z M 100 641.889771 " transform="matrix(1,0,0,1,-19,-540.889771)"/>
<path style="fill:none;stroke-width:0.4;stroke-linecap:round;stroke-linejoin:miter;stroke:rgb(0%,0%,0%);stroke-opacity:1;stroke-miterlimit:4;" d="M 100 661.889771 L 120 661.889771 L 120 681.889771 L 100 681.889771 Z M 100 661.889771 " transform="matrix(1,0,0,1,-19,-540.889771)"/>
<path style="fill:none;stroke-width:0.4;stroke-linecap:round;stroke-linejoin:miter;stroke:rgb(0%,0%,0%);stroke-opacity:1;stroke-miterlimit:4;" d="M 100 681.889771 L 120 681.889771 L 120 701.889771 L 100 701.889771 Z M 100 681.889771 " transform="matrix(1,0,0,1,-19,-540.889771)"/>
<path style="fill:none;stroke-width:0.4;stroke-linecap:butt;stroke-linejoin:miter;stroke:rgb(0%,0%,0%);stroke-opacity:1;stroke-miterlimit:4;" d="M 104 619.889771 L 104 623.889771 " transform="matrix(1,0,0,1,-19,-540.889771)"/>
<path style="fill:none;stroke-width:0.4;stroke-linecap:butt;stroke-linejoin:miter;stroke:rgb(0%,0%,0%);stroke-opacity:1;stroke-miterlimit:4;" d="M 108 619.889771 L 108 623.889771 " transform="matrix(1,0,0,1,-19,-540.889771)"/>
<path style="fill:none;stroke-width:0.4;stroke-linecap:butt;stroke-linejoin:miter;stroke:rgb(0%,0%,0%);stroke-opacity:1;stroke-miterlimit:4;" d="M 112 619.889771 L 112 623.889771 " transform="matrix(1,0,0,1,-19,-540.889771)"/>
<path style="fill:none;stroke-width:0.4;stroke-linecap:butt;stroke-linejoin:miter;stroke:rgb(0%,0%,0%);stroke-opacity:1;stroke-miterlimit:4;" d="M 116 619.889771 L 116 623.889771 " transform="matrix(1,0,0,1,-19,-540.889771)"/>
<path style="fill:none;stroke-width:0.4;stroke-linecap:round;stroke-linejoin:miter;stroke:rgb(0%,0%,0%);stroke-opacity:1;stroke-miterlimit:4;" d="M 120 541.889771 L 140 541.889771 L 140 561.889771 L 120 561.889771 Z M 120 541.889771 " transform="matrix(1,0,0,1,-19,-540.889771)"/>
<path style="fill:none;stroke-width:0.4;stroke-linecap:round;stroke-linejoin:miter;stroke:rgb(0%,0%,0%);stroke-opacity:1;stroke-miterlimit:4;" d="M 120 561.889771 L 140 561.889771 L 140 581.889771 L 120 581.889771 Z M 120 561.889771 " transform="matrix(1,0,0,1,-19,-540.889771)"/>
<path style="fill:none;stroke-width:0.4;stroke-linecap:round;stroke-linejoin:miter;stroke:rgb(0%,0%,0%);stroke-opacity:1;stroke-miterlimit:4;" d="M 120 581.889771 L 140 581.889771 L 140 601.889771 L 120 601.889771 Z M 120 581.889771 " transform="matrix(1,0,0,1,-19,-540.889771)"/>
<path style="fill:none;stroke-width:0.4;stroke-linecap:round;stroke-linejoin:miter;stroke:rgb(0%,0%,0%);stroke-opacity:1;stroke-miterlimit:4;" d="M 120 601.889771 L 140 601.889771 L 140 621.889771 L 120 621.889771 Z M 120 601.889771 " transform="matrix(1,0,0,1,-19,-540.889771)"/>
<path style="fill:none;stroke-width:0.4;stroke-linecap:round;stroke-linejoin:miter;stroke:rgb(0%,0%,0%);stroke-opacity:1;stroke-miterlimit:4;" d="M 120 621.889771 L 140 621.889771 L 140 641.889771 L 120 641.889771 Z M 120 621.889771 " transform="matrix(1,0,0,1,-19,-540.889771)"/>
<path style="fill:none;stroke-width:0.4;stroke-linecap:round;stroke-linejoin:miter;stroke:rgb(0%,0%,0%);stroke-opacity:1;stroke-miterlimit:4;" d="M 120 641.889771 L 140 641.889771 L 140 661.889771 L 120 661.889771 Z M 120 641.889771 " transform="matrix(1,0,0,1,-19,-540.889771)"/>
<path style="fill:none;stroke-width:0.4;stroke-linecap:round;stroke-linejoin:miter;stroke:rgb(0%,0%,0%);stroke-opacity:1;stroke-miterlimit:4;" d="M 120 661.889771 L 140 661.889771 L 140 681.889771 L 120 681.889771 Z M 120 661.889771 " transform="matrix(1,0,0,1,-19,-540.889771)"/>
<path style="fill:none;stroke-width:0.4;stroke-linecap:round;stroke-linejoin:miter;stroke:rgb(0%,0%,0%);stroke-opacity:1;stroke-miterlimit:4;" d="M 120 681.889771 L 140 681.889771 L 140 701.889771 L 120 701.889771 Z M 120 681.889771 " transform="matrix(1,0,0,1,-19,-540.889771)"/>
<path style="fill:none;stroke-width:0.4;stroke-linecap:butt;stroke-linejoin:miter;stroke:rgb(0%,0%,0%);stroke-opacity:1;stroke-miterlimit:4;" d="M 124 619.889771 L 124 623.889771 " transform="matrix(1,0,0,1,-19,-540.889771)"/>
<path style="fill:none;stroke-width:0.4;stroke-linecap:butt;stroke-linejoin:miter;stroke:rgb(0%,0%,0%);stroke-opacity:1;stroke-miterlimit:4;" d="M 128 619.889771 L 128 623.889771 " transform="matrix(1,0,0,1,-19,-540.889771)"/>
<path style="fill:none;stroke-width:0.4;stroke-linecap:butt;stroke-linejoin:miter;stroke:rgb(0%,0%,0%);stroke-opacity:1;stroke-miterlimit:4;" d="M 132 619.889771 L 132 623.889771 " transform="matrix(1,0,0,1,-19,-540.889771)"/>
<path style="fill:none;stroke-width:0.4;stroke-linecap:butt;stroke-linejoin:miter;stroke:rgb(0%,0%,0%);stroke-opacity:1;stroke-miterlimit:4;" d="M 136 619.889771 L 136 623.889771 " transform="matrix(1,0,0,1,-19,-540.889771)"/>
<path style="fill:none;stroke-width:0.4;stroke-linecap:round;stroke-linejoin:miter;stroke:rgb(0%,0%,0%);stroke-opacity:1;stroke-miterlimit:4;" d="M 140 541.889771 L 160 541.889771 L 160 561.889771 L 140 561.889771 Z M 140 541.889771 " transform="matrix(1,0,0,1,-19,-540.889771)"/>
<path style="fill:none;stroke-width:0.4;stroke-linecap:round;stroke-linejoin:miter;stroke:rgb(0%,0%,0%);stroke-opacity:1;stroke-miterlimit:4;" d="M 140 561.889771 L 160 561.889771 L 160 581.889771 L 140 581.889771 Z M 140 561.889771 " transform="matrix(1,0,0,1,-19,-540.889771)"/>
<path style="fill:none;stroke-width:0.4;stroke-linecap:round;stroke-linejoin:miter;stroke:rgb(0%,0%,0%);stroke-opacity:1;stroke-miterlimit:4;" d="M 140 581.889771 L 160 581.889771 L 160 601.889771 L 140 601.889771 Z M 140 581.889771 " transform="matrix(1,0,0,1,-19,-540.889771)"/>
<path style="fill:none;stroke-width:0.4;stroke-linecap:round;stroke-linejoin:miter;stroke:rgb(0%,0%,0%);stroke-opacity:1;stroke-miterlimit:4;" d="M 140 601.889771 L 160 601.889771 L 160 621.889771 L 140 621.889771 Z M 140 601.889771 " transform="matrix(1,0,0,1,-19,-540.889771)"/>
<path style="fill:none;stroke-width:0.4;stroke-linecap:round;stroke-linejoin:miter;stroke:rgb(0%,0%,0%);stroke-opacity:1;stroke-miterlimit:4;" d="M 140 621.889771 L 160 621.889771 L 160 641.889771 L 140 641.889771 Z M 140 621.889771 " transform="matrix(1,0,0,1,-19,-540.889771)"/>
<path style="fill:none;stroke-width:0.4;stroke-linecap:round;stroke-linejoin:miter;stroke:rgb(0%,0%,0%);stroke-opacity:1;stroke-miterlimit:4;" d="M 140 641.889771 L 160 641.889771 L 160 661.889771 L 140 661.889771 Z M 140 641.889771 " transform="matrix(1,0,0,1,-19,-540.889771)"/>
<path style="fill:none;stroke-width:0.4;stroke-linecap:round;stroke-linejoin:miter;stroke:rgb(0%,0%,0%);stroke-opacity:1;stroke-miterlimit:4;" d="M 140 661.889771 L 160 661.889771 L 160 681.889771 L 140 681.889771 Z M 140 661.889771 " transform="matrix(1,0,0,1,-19,-540.889771)"/>
<path style="fill:none;stroke-width:0.4;stroke-linecap:round;stroke-linejoin:miter;stroke:rgb(0%,0%,0%);stroke-opacity:1;stroke-miterlimit:4;" d="M 140 681.889771 L 160 681.889771 L 160 701.889771 L 140 701.889771 Z M 140 681.889771 " transform="matrix(1,0,0,1,-19,-540.889771)"/>
<path style="fill:none;stroke-width:0.4;stroke-linecap:butt;stroke-linejoin:miter;stroke:rgb(0%,0%,0%);stroke-opacity:1;stroke-miterlimit:4;" d="M 144 619.889771 L 144 623.889771 " transform="matrix(1,0,0,1,-19,-540.889771)"/>
<path style="fill:none;stroke-width:0.4;stroke-linecap:butt;stroke-linejoin:miter;stroke:rgb(0%,0%,0%);stroke-opacity:1;stroke-miterlimit:4;" d="M 148 619.889771 L 148 623.889771 " transform="matrix(1,0,0,1,-19,-540.889771)"/>
<path style="fill:none;stroke-width:0.4;stroke-linecap:butt;stroke-linejoin:miter;stroke:rgb(0%,0%,0%);stroke-opacity:1;stroke-miterlimit:4;" d="M 152 619.889771 L 152 623.889771 " transform="matrix(1,0,0,1,-19,-540.889771)"/>
<path style="fill:none;stroke-width:0.4;stroke-linecap:butt;stroke-linejoin:miter;stroke:rgb(0%,0%,0%);stroke-opacity:1;stroke-miterlimit:4;" d="M 156 619.889771 L 156 623.889771 " transform="matrix(1,0,0,1,-19,-540.889771)"/>
<path style="fill:none;stroke-width:0.4;stroke-linecap:round;stroke-linejoin:miter;stroke:rgb(0%,0%,0%);stroke-opacity:1;stroke-miterlimit:4;" d="M 160 541.889771 L 180 541.889771 L 180 561.889771 L 160 561.889771 Z M 160 541.889771 " transform="matrix(1,0,0,1,-19,-540.889771)"/>
<path style="fill:none;stroke-width:0.4;stroke-linecap:round;stroke-linejoin:miter;stroke:rgb(0%,0%,0%);stroke-opacity:1;stroke-miterlimit:4;" d="M 160 561.889771 L 180 561.889771 L 180 581.889771 L 160 581.889771 Z M 160 561.889771 " transform="matrix(1,0,0,1,-19,-540.889771)"/>
<path style="fill:none;stroke-width:0.4;stroke-linecap:round;stroke-linejoin:miter;stroke:rgb(0%,0%,0%);stroke-opacity:1;stroke-miterlimit:4;" d="M 160 581.889771 L 180 581.889771 L 180 601.889771 L 160 601.889771 Z M 160 581.889771 " transform="matrix(1,0,0,1,-19,-540.889771)"/>
<path style="fill:none;stroke-width:0.4;stroke-linecap:round;stroke-linejoin:miter;stroke:rgb(0%,0%,0%);stroke-opacity:1;stroke-miterlimit:4;" d="M 160 601.889771 L 180 601.889771 L 180 621.889771 L 160 621.889771 Z M 160 601.889771 " transform="matrix(1,0,0,1,-19,-540.889771)"/>
<path style="fill:none;stroke-width:0.4;stroke-linecap:round;stroke-linejoin:miter;stroke:rgb(0%,0%,0%);stroke-opacity:1;stroke-miterlimit:4;" d="M 160 621.889771 L 180 621.889771 L 180 641.889771 L 160 641.889771 Z M 160 621.889771 " transform="matrix(1,0,0,1,-19,-540.889771)"/>
<path style="fill:none;stroke-width:0.4;stroke-linecap:round;stroke-linejoin:miter;stroke:rgb(0%,0%,0%);stroke-opacity:1;stroke-miterlimit:4;" d="M 160 641.889771 L 180 641.889771 L 180 661.889771 L 160 661.889771 Z M 160 641.889771 " transform="matrix(1,0,0,1,-19,-540.889771)"/>
<path style="fill:none;stroke-width:0.4;stroke-linecap:round;stroke-linejoin:miter;stroke:rgb(0%,0%,0%);stroke-opacity:1;stroke-miterlimit:4;" d="M 160 661.889771 L 180 661.889771 L 180 681.889771 L 160 681.889771 Z M 160 661.889771 " transform="matrix(1,0,0,1,-19,-540.889771)"/>
<path style="fill:none;stroke-width:0.4;stroke-linecap:round;stroke-linejoin:miter;stroke:rgb(0%,0%,0%);stroke-opacity:1;stroke-miterlimit:4;" d="M 160 681.889771 L 180 681.889771 L 180 701.889771 L 160 701.889771 Z M 160 681.889771 " transform="matrix(1,0,0,1,-19,-540.889771)"/>
<path style="fill:none;stroke-width:0.4;stroke-linecap:butt;stroke-linejoin:miter;stroke:rgb(0%,0%,0%);stroke-opacity:1;stroke-miterlimit:4;" d="M 164 619.889771 L 164 623.889771 " transform="matrix(1,0,0,1,-19,-540.889771)"/>
<path style="fill:none;stroke-width:0.4;stroke-linecap:butt;stroke-linejoin:miter;stroke:rgb(0%,0%,0%);stroke-opacity:1;stroke-miterlimit:4;" d="M 168 619.889771 L 168 623.889771 " transform="matrix(1,0,0,1,-19,-540.889771)"/>
<path style="fill:none;stroke-width:0.4;stroke-linecap:butt;stroke-linejoin:miter;stroke:rgb(0%,0%,0%);stroke-opacity:1;stroke-miterlimit:4;" d="M 172 619.889771 L 172 623.889771 " transform="matrix(1,0,0,1,-19,-540.889771)"/>
<path style="fill:none;stroke-width:0.4;stroke-linecap:butt;stroke-linejoin:miter;stroke:rgb(0%,0%,0%);stroke-opacity:1;stroke-miterlimit:4;" d="M 176 619.889771 L 176 623.889771 " transform="matrix(1,0,0,1,-19,-540.889771)"/>
<path style="fill:none;stroke-width:0.4;stroke-linecap:round;stroke-linejoin:miter;stroke:rgb(0%,0%,0%);stroke-opacity:1;stroke-miterlimit:4;" d="M 180 541.889771 L 200 541.889771 L 200 561.889771 L 180 561.889771 Z M 180 541.889771 " transform="matrix(1,0,0,1,-19,-540.889771)"/>
<path style="fill:none;stroke-width:0.4;stroke-linecap:round;stroke-linejoin:miter;stroke:rgb(0%,0%,0%);stroke-opacity:1;stroke-miterlimit:4;" d="M 180 561.889771 L 200 561.889771 L 200 581.889771 L 180 581.889771 Z M 180 561.889771 " transform="matrix(1,0,0,1,-19,-540.889771)"/>
<path style="fill:none;stroke-width:0.4;stroke-linecap:round;stroke-linejoin:miter;stroke:rgb(0%,0%,0%);stroke-opacity:1;stroke-miterlimit:4;" d="M 180 581.889771 L 200 581.889771 L 200 601.889771 L 180 601.889771 Z M 180 581.889771 " transform="matrix(1,0,0,1,-19,-540.889771)"/>
<path style="fill:none;stroke-width:0.4;stroke-linecap:round;stroke-linejoin:miter;stroke:rgb(0%,0%,0%);stroke-opacity:1;stroke-miterlimit:4;" d="M 180 601.889771 L 200 601.889771 L 200 621.889771 L 180 621.889771 Z M 180 601.889771 " transform="matrix(1,0,0,1,-19,-540.889771)"/>
<path style="fill:none;stroke-width:0.4;stroke-linecap:round;stroke-linejoin:miter;stroke:rgb(0%,0%,0%);stroke-opacity:1;stroke-miterlimit:4;" d="M 180 621.889771 L 200 621.889771 L 200 641.889771 L 180 641.889771 Z M 180 621.889771 " transform="matrix(1,0,0,1,-19,-540.889771)"/>
<path style="fill:none;stroke-width:0.4;stroke-linecap:round;stroke-linejoin:miter;stroke:rgb(0%,0%,0%);stroke-opacity:1;stroke-miterlimit:4;" d="M 180 641.889771 L 200 641.889771 L 200 661.889771 L 180 661.889771 Z M 180 641.889771 " transform="matrix(1,0,0,1,-19,-540.889771)"/>
<path style="fill:none;stroke-width:0.4;stroke-linecap:round;stroke-linejoin:miter;stroke:rgb(0%,0%,0%);stroke-opacity:1;stroke-miterlimit:4;" d="M 180 661.889771 L 200 661.889771 L 200 681.889771 L 180 681.889771 Z M 180 661.889771 " transform="matrix(1,0,0,1,-19,-540.889771)"/>
<path style="fill:none;stroke-width:0.4;stroke-linecap:round;stroke-linejoin:miter;stroke:rgb(0%,0%,0%);stroke-opacity:1;stroke-miterlimit:4;" d="M 180 681.889771 L 200 681.889771 L 200 701.889771 L 180 701.889771 Z M 180 681.889771 " transform="matrix(1,0,0,1,-19,-540.889771)"/>
<path style="fill:none;stroke-width:0.4;stroke-linecap:butt;stroke-linejoin:miter;stroke:rgb(0%,0%,0%);stroke-opacity:1;stroke-miterlimit:4;" d="M 184 619.889771 L 184 623.889771 " transform="matrix(1,0,0,1,-19,-540.889771)"/>
<path style="fill:none;stroke-width:0.4;stroke-linecap:butt;stroke-linejoin:miter;stroke:rgb(0%,0%,0%);stroke-opacity:1;stroke-miterlimit:4;" d="M 188 619.889771 L 188 623.889771 " transform="matrix(1,0,0,1,-19,-540.889771)"/>
<path style="fill:none;stroke-width:0.4;stroke-linecap:butt;stroke-linejoin:miter;stroke:rgb(0%,0%,0%);stroke-opacity:1;stroke-miterlimit:4;" d="M 192 619.889771 L 192 623.889771 " transform="matrix(1,0,0,1,-19,-540.889771)"/>
<path style="fill:none;stroke-width:0.4;stroke-linecap:butt;stroke-linejoin:miter;stroke:rgb(0%,0%,0%);stroke-opacity:1;stroke-miterlimit:4;" d="M 196 619.889771 L 196 623.889771 " transform="matrix(1,0,0,1,-19,-540.889771)"/>
<path style="fill:none;stroke-width:0.4;stroke-linecap:round;stroke-linejoin:miter;stroke:rgb(0%,0%,0%);stroke-opacity:1;stroke-miterlimit:4;" d="M 200 541.889771 L 220 541.889771 L 220 561.889771 L 200 561.889771 Z M 200 541.889771 " transform="matrix(1,0,0,1,-19,-540.889771)"/>
<path style="fill:none;stroke-width:0.4;stroke-linecap:round;stroke-linejoin:miter;stroke:rgb(0%,0%,0%);stroke-opacity:1;stroke-miterlimit:4;" d="M 200 561.889771 L 220 561.889771 L 220 581.889771 L 200 581.889771 Z M 200 561.889771 " transform="matrix(1,0,0,1,-19,-540.889771)"/>
<path style="fill:none;stroke-width:0.4;stroke-linecap:round;stroke-linejoin:miter;stroke:rgb(0%,0%,0%);stroke-opacity:1;stroke-miterlimit:4;" d="M 200 581.889771 L 220 581.889771 L 220 601.889771 L 200 601.889771 Z M 200 581.889771 " transform="matrix(1,0,0,1,-19,-540.889771)"/>
<path style="fill:none;stroke-width:0.4;stroke-linecap:round;stroke-linejoin:miter;stroke:rgb(0%,0%,0%);stroke-opacity:1;stroke-miterlimit:4;" d="M 200 601.889771 L 220 601.889771 L 220 621.889771 L 200 621.889771 Z M 200 601.889771 " transform="matrix(1,0,0,1,-19,-540.889771)"/>
<path style="fill:none;stroke-width:0.4;stroke-linecap:round;stroke-linejoin:miter;stroke:rgb(0%,0%,0%);stroke-opacity:1;stroke-miterlimit:4;" d="M 200 621.889771 L 220 621.889771 L 220 641.889771 L 200 641.889771 Z M 200 621.889771 " transform="matrix(1,0,0,1,-19,-540.889771)"/>
<path style="fill:none;stroke-width:0.4;stroke-linecap:round;stroke-linejoin:miter;stroke:rgb(0%,0%,0%);stroke-opacity:1;stroke-miterlimit:4;" d="M 200 641.889771 L 220 641.889771 L 220 661.889771 L 200 661.889771 Z M 200 641.889771 " transform="matrix(1,0,0,1,-19,-540.889771)"/>
<path style="fill:none;stroke-width:0.4;stroke-linecap:round;stroke-linejoin:miter;stroke:rgb(0%,0%,0%);stroke-opacity:1;stroke-miterlimit:4;" d="M 200 661.889771 L 220 661.889771 L 220 681.889771 L 200 681.889771 Z M 200 661.889771 " transform="matrix(1,0,0,1,-19,-540.889771)"/>
<path style="fill:none;stroke-width:0.4;stroke-linecap:round;stroke-linejoin:miter;stroke:rgb(0%,0%,0%);stroke-opacity:1;stroke-miterlimit:4;" d="M 200 681.889771 L 220 681.889771 L 220 701.889771 L 200 701.889771 Z M 200 681.889771 " transform="matrix(1,0,0,1,-19,-540.889771)"/>
<path style="fill:none;stroke-width:0.4;stroke-linecap:butt;stroke-linejoin:miter;stroke:rgb(0%,0%,0%);stroke-opacity:1;stroke-miterlimit:4;" d="M 204 619.889771 L 204 623.889771 " transform="matrix(1,0,0,1,-19,-540.889771)"/>
<path style="fill:none;stroke-width:0.4;stroke-linecap:butt;stroke-linejoin:miter;stroke:rgb(0%,0%,0%);stroke-opacity:1;stroke-miterlimit:4;" d="M 208 619.889771 L 208 623.889771 " transform="matrix(1,0,0,1,-19,-540.889771)"/>
<path style="fill:none;stroke-width:0.4;stroke-linecap:butt;stroke-linejoin:miter;stroke:rgb(0%,0%,0%);stroke-opacity:1;stroke-miterlimit:4;" d="M 212 619.889771 L 212 623.889771 " transform="matrix(1,0,0,1,-19,-540.889771)"/>
<path style="fill:none;stroke-width:0.4;stroke-linecap:butt;stroke-linejoin:miter;stroke:rgb(0%,0%,0%);stroke-opacity:1;stroke-miterlimit:4;" d="M 216 619.889771 L 216 623.889771 " transform="matrix(1,0,0,1,-19,-540.889771)"/>
<path style="fill:none;stroke-width:0.4;stroke-linecap:butt;stroke-linejoin:miter;stroke:rgb(0%,0%,0%);stroke-opacity:1;stroke-miterlimit:4;" d="M 122 545.889771 L 118 545.889771 " transform="matrix(1,0,0,1,-19,-540.889771)"/>
<path style="fill:none;stroke-width:0.4;stroke-linecap:butt;stroke-linejoin:miter;stroke:rgb(0%,0%,0%);stroke-opacity:1;stroke-miterlimit:4;" d="M 122 549.889771 L 118 549.889771 " transform="matrix(1,0,0,1,-19,-540.889771)"/>
<path style="fill:none;stroke-width:0.4;stroke-linecap:butt;stroke-linejoin:miter;stroke:rgb(0%,0%,0%);stroke-opacity:1;stroke-miterlimit:4;" d="M 122 553.889771 L 118 553.889771 " transform="matrix(1,0,0,1,-19,-540.889771)"/>
<path style="fill:none;stroke-width:0.4;stroke-linecap:butt;stroke-linejoin:miter;stroke:rgb(0%,0%,0%);stroke-opacity:1;stroke-miterlimit:4;" d="M 122 557.889771 L 118 557.889771 " transform="matrix(1,0,0,1,-19,-540.889771)"/>
<path style="fill:none;stroke-width:0.4;stroke-linecap:butt;stroke-linejoin:miter;stroke:rgb(0%,0%,0%);stroke-opacity:1;stroke-miterlimit:4;" d="M 120 541.889771 L 120 561.889771 " transform="matrix(1,0,0,1,-19,-540.889771)"/>
<path style="fill:none;stroke-width:0.4;stroke-linecap:butt;stroke-linejoin:miter;stroke:rgb(0%,0%,0%);stroke-opacity:1;stroke-miterlimit:4;" d="M 122 565.889771 L 118 565.889771 " transform="matrix(1,0,0,1,-19,-540.889771)"/>
<path style="fill:none;stroke-width:0.4;stroke-linecap:butt;stroke-linejoin:miter;stroke:rgb(0%,0%,0%);stroke-opacity:1;stroke-miterlimit:4;" d="M 122 569.889771 L 118 569.889771 " transform="matrix(1,0,0,1,-19,-540.889771)"/>
<path style="fill:none;stroke-width:0.4;stroke-linecap:butt;stroke-linejoin:miter;stroke:rgb(0%,0%,0%);stroke-opacity:1;stroke-miterlimit:4;" d="M 122 573.889771 L 118 573.889771 " transform="matrix(1,0,0,1,-19,-540.889771)"/>
<path style="fill:none;stroke-width:0.4;stroke-linecap:butt;stroke-linejoin:miter;stroke:rgb(0%,0%,0%);stroke-opacity:1;stroke-miterlimit:4;" d="M 122 577.889771 L 118 577.889771 " transform="matrix(1,0,0,1,-19,-540.889771)"/>
<path style="fill:none;stroke-width:0.4;stroke-linecap:butt;stroke-linejoin:miter;stroke:rgb(0%,0%,0%);stroke-opacity:1;stroke-miterlimit:4;" d="M 120 561.889771 L 120 581.889771 " transform="matrix(1,0,0,1,-19,-540.889771)"/>
<path style="fill:none;stroke-width:0.4;stroke-linecap:butt;stroke-linejoin:miter;stroke:rgb(0%,0%,0%);stroke-opacity:1;stroke-miterlimit:4;" d="M 122 585.889771 L 118 585.889771 " transform="matrix(1,0,0,1,-19,-540.889771)"/>
<path style="fill:none;stroke-width:0.4;stroke-linecap:butt;stroke-linejoin:miter;stroke:rgb(0%,0%,0%);stroke-opacity:1;stroke-miterlimit:4;" d="M 122 589.889771 L 118 589.889771 " transform="matrix(1,0,0,1,-19,-540.889771)"/>
<path style="fill:none;stroke-width:0.4;stroke-linecap:butt;stroke-linejoin:miter;stroke:rgb(0%,0%,0%);stroke-opacity:1;stroke-miterlimit:4;" d="M 122 593.889771 L 118 593.889771 " transform="matrix(1,0,0,1,-19,-540.889771)"/>
<path style="fill:none;stroke-width:0.4;stroke-linecap:butt;stroke-linejoin:miter;stroke:rgb(0%,0%,0%);stroke-opacity:1;stroke-miterlimit:4;" d="M 122 597.889771 L 118 597.889771 " transform="matrix(1,0,0,1,-19,-540.889771)"/>
<path style="fill:none;stroke-width:0.4;stroke-linecap:butt;stroke-linejoin:miter;stroke:rgb(0%,0%,0%);stroke-opacity:1;stroke-miterlimit:4;" d="M 120 581.889771 L 120 601.889771 " transform="matrix(1,0,0,1,-19,-540.889771)"/>
<path style="fill:none;stroke-width:0.4;stroke-linecap:butt;stroke-linejoin:miter;stroke:rgb(0%,0%,0%);stroke-opacity:1;stroke-miterlimit:4;" d="M 122 605.889771 L 118 605.889771 " transform="matrix(1,0,0,1,-19,-540.889771)"/>
<path style="fill:none;stroke-width:0.4;stroke-linecap:butt;stroke-linejoin:miter;stroke:rgb(0%,0%,0%);stroke-opacity:1;stroke-miterlimit:4;" d="M 122 609.889771 L 118 609.889771 " transform="matrix(1,0,0,1,-19,-540.889771)"/>
<path style="fill:none;stroke-width:0.4;stroke-linecap:butt;stroke-linejoin:miter;stroke:rgb(0%,0%,0%);stroke-opacity:1;stroke-miterlimit:4;" d="M 122 613.889771 L 118 613.889771 " transform="matrix(1,0,0,1,-19,-540.889771)"/>
<path style="fill:none;stroke-width:0.4;stroke-linecap:butt;stroke-linejoin:miter;stroke:rgb(0%,0%,0%);stroke-opacity:1;stroke-miterlimit:4;" d="M 122 617.889771 L 118 617.889771 " transform="matrix(1,0,0,1,-19,-540.889771)"/>
<path style="fill:none;stroke-width:0.4;stroke-linecap:butt;stroke-linejoin:miter;stroke:rgb(0%,0%,0%);stroke-opacity:1;stroke-miterlimit:4;" d="M 120 601.889771 L 120 621.889771 " transform="matrix(1,0,0,1,-19,-540.889771)"/>
<path style="fill:none;stroke-width:0.4;stroke-linecap:butt;stroke-linejoin:miter;stroke:rgb(0%,0%,0%);stroke-opacity:1;stroke-miterlimit:4;" d="M 122 625.889771 L 118 625.889771 " transform="matrix(1,0,0,1,-19,-540.889771)"/>
<path style="fill:none;stroke-width:0.4;stroke-linecap:butt;stroke-linejoin:miter;stroke:rgb(0%,0%,0%);stroke-opacity:1;stroke-miterlimit:4;" d="M 122 629.889771 L 118 629.889771 " transform="matrix(1,0,0,1,-19,-540.889771)"/>
<path style="fill:none;stroke-width:0.4;stroke-linecap:butt;stroke-linejoin:miter;stroke:rgb(0%,0%,0%);stroke-opacity:1;stroke-miterlimit:4;" d="M 122 633.889771 L 118 633.889771 " transform="matrix(1,0,0,1,-19,-540.889771)"/>
<path style="fill:none;stroke-width:0.4;stroke-linecap:butt;stroke-linejoin:miter;stroke:rgb(0%,0%,0%);stroke-opacity:1;stroke-miterlimit:4;" d="M 122 637.889771 L 118 637.889771 " transform="matrix(1,0,0,1,-19,-540.889771)"/>
<path style="fill:none;stroke-width:0.4;stroke-linecap:butt;stroke-linejoin:miter;stroke:rgb(0%,0%,0%);stroke-opacity:1;stroke-miterlimit:4;" d="M 120 621.889771 L 120 641.889771 " transform="matrix(1,0,0,1,-19,-540.889771)"/>
<path style="fill:none;stroke-width:0.4;stroke-linecap:butt;stroke-linejoin:miter;stroke:rgb(0%,0%,0%);stroke-opacity:1;stroke-miterlimit:4;" d="M 122 645.889771 L 118 645.889771 " transform="matrix(1,0,0,1,-19,-540.889771)"/>
<path style="fill:none;stroke-width:0.4;stroke-linecap:butt;stroke-linejoin:miter;stroke:rgb(0%,0%,0%);stroke-opacity:1;stroke-miterlimit:4;" d="M 122 649.889771 L 118 649.889771 " transform="matrix(1,0,0,1,-19,-540.889771)"/>
<path style="fill:none;stroke-width:0.4;stroke-linecap:butt;stroke-linejoin:miter;stroke:rgb(0%,0%,0%);stroke-opacity:1;stroke-miterlimit:4;" d="M 122 653.889771 L 118 653.889771 " transform="matrix(1,0,0,1,-19,-540.889771)"/>
<path style="fill:none;stroke-width:0.4;stroke-linecap:butt;stroke-linejoin:miter;stroke:rgb(0%,0%,0%);stroke-opacity:1;stroke-miterlimit:4;" d="M 122 657.889771 L 118 657.889771 " transform="matrix(1,0,0,1,-19,-540.889771)"/>
<path style="fill:none;stroke-width:0.4;stroke-linecap:butt;stroke-linejoin:miter;stroke:rgb(0%,0%,0%);stroke-opacity:1;stroke-miterlimit:4;" d="M 120 641.889771 L 120 661.889771 " transform="matrix(1,0,0,1,-19,-540.889771)"/>
<path style="fill:none;stroke-width:0.4;stroke-linecap:butt;stroke-linejoin:miter;stroke:rgb(0%,0%,0%);stroke-opacity:1;stroke-miterlimit:4;" d="M 122 665.889771 L 118 665.889771 " transform="matrix(1,0,0,1,-19,-540.889771)"/>
<path style="fill:none;stroke-width:0.4;stroke-linecap:butt;stroke-linejoin:miter;stroke:rgb(0%,0%,0%);stroke-opacity:1;stroke-miterlimit:4;" d="M 122 669.889771 L 118 669.889771 " transform="matrix(1,0,0,1,-19,-540.889771)"/>
<path style="fill:none;stroke-width:0.4;stroke-linecap:butt;stroke-linejoin:miter;stroke:rgb(0%,0%,0%);stroke-opacity:1;stroke-miterlimit:4;" d="M 122 673.889771 L 118 673.889771 " transform="matrix(1,0,0,1,-19,-540.889771)"/>
<path style="fill:none;stroke-width:0.4;stroke-linecap:butt;stroke-linejoin:miter;stroke:rgb(0%,0%,0%);stroke-opacity:1;stroke-miterlimit:4;" d="M 122 677.889771 L 118 677.889771 " transform="matrix(1,0,0,1,-19,-540.889771)"/>
<path style="fill:none;stroke-width:0.4;stroke-linecap:butt;stroke-linejoin:miter;stroke:rgb(0%,0%,0%);stroke-opacity:1;stroke-miterlimit:4;" d="M 120 661.889771 L 120 681.889771 " transform="matrix(1,0,0,1,-19,-540.889771)"/>
<path style="fill:none;stroke-width:0.4;stroke-linecap:butt;stroke-linejoin:miter;stroke:rgb(0%,0%,0%);stroke-opacity:1;stroke-miterlimit:4;" d="M 122 685.889771 L 118 685.889771 " transform="matrix(1,0,0,1,-19,-540.889771)"/>
<path style="fill:none;stroke-width:0.4;stroke-linecap:butt;stroke-linejoin:miter;stroke:rgb(0%,0%,0%);stroke-opacity:1;stroke-miterlimit:4;" d="M 122 689.889771 L 118 689.889771 " transform="matrix(1,0,0,1,-19,-540.889771)"/>
<path style="fill:none;stroke-width:0.4;stroke-linecap:butt;stroke-linejoin:miter;stroke:rgb(0%,0%,0%);stroke-opacity:1;stroke-miterlimit:4;" d="M 122 693.889771 L 118 693.889771 " transform="matrix(1,0,0,1,-19,-540.889771)"/>
<path style="fill:none;stroke-width:0.4;stroke-linecap:butt;stroke-linejoin:miter;stroke:rgb(0%,0%,0%);stroke-opacity:1;stroke-miterlimit:4;" d="M 122 697.889771 L 118 697.889771 " transform="matrix(1,0,0,1,-19,-540.889771)"/>
<path style="fill:none;stroke-width:0.4;stroke-linecap:butt;stroke-linejoin:miter;stroke:rgb(0%,0%,0%);stroke-opacity:1;stroke-miterlimit:4;" d="M 120 681.889771 L 120 701.889771 " transform="matrix(1,0,0,1,-19,-540.889771)"/>
<path style="fill:none;stroke-width:1.2;stroke-linecap:round;stroke-linejoin:miter;stroke:rgb(100%,0%,0%);stroke-opacity:1;stroke-miterlimit:4;" d="M 48 565.889771 C 51.808594 619.18274 55.617188 638.256959 59.429688 651.049927 C 63.238281 663.83899 67.046875 668.389771 70.855469 671.456177 C 74.667969 674.522584 78.476562 675.612427 82.285156 676.346802 C 86.09375 677.081177 89.90625 677.342896 93.714844 677.518677 C 97.523438 677.694459 101.332031 677.756959 105.144531 677.799927 C 108.953125 677.842896 112.761719 677.858521 116.570312 677.866334 C 120.382812 677.878052 124.191406 677.881959 128 677.881959 " transform="matrix(1,0,0,1,-19,-540.889771)"/>
<path style="fill:none;stroke-width:1.2;stroke-linecap:round;stroke-linejoin:miter;stroke:rgb(100%,0%,0%);stroke-opacity:1;stroke-miterlimit:4;" d="M 128 677.889771 C 131.808594 624.592896 135.617188 605.518677 139.429688 592.729615 C 143.238281 579.940552 147.046875 575.385865 150.855469 572.319459 C 154.667969 569.256959 158.476562 568.163209 162.285156 567.428834 C 166.09375 566.694459 169.90625 566.43274 173.714844 566.256959 C 177.523438 566.081177 181.332031 566.018677 185.144531 565.975709 C 188.953125 565.936646 192.761719 565.921021 196.570312 565.909302 C 200.382812 565.90149 204.191406 565.897584 208 565.893677 " transform="matrix(1,0,0,1,-19,-540.889771)"/>
<g clip-path="url(#clip2)" clip-rule="nonzero">
<path style="fill:none;stroke-width:1.2;stroke-linecap:round;stroke-linejoin:miter;stroke:rgb(100%,0%,0%);stroke-opacity:1;stroke-miterlimit:4;" d="M 208 -565.889771 C 211.808594 -619.18274 215.617188 -638.256958 219.429688 -651.049927 C 223.238281 -663.83899 227.046875 -668.389771 230.855469 -671.456177 C 234.667969 -674.522583 238.476562 -675.612427 242.285156 -676.346802 C 246.09375 -677.081177 249.90625 -677.342896 253.714844 -677.518677 C 257.523438 -677.694458 261.332031 -677.756958 265.144531 -677.799927 C 268.953125 -677.842896 272.761719 -677.858521 276.570312 -677.866333 C 280.382812 -677.878052 284.191406 -677.881958 288 -677.881958 " transform="matrix(1,0,0,-1,-19,-540.889771)"/>
</g>
<path style="fill:none;stroke-width:1.2;stroke-linecap:butt;stroke-linejoin:miter;stroke:rgb(100%,0%,0%);stroke-opacity:1;stroke-miterlimit:4;" d="M 48 565.889771 L 20 565.889771 " transform="matrix(1,0,0,1,-19,-540.889771)"/>
</g>
</defs>
<g id="surface1">
<use xlink:href="#surface4"/>
</g>
</svg>
